<mxfile host="app.diagrams.net" agent="Mozilla/5.0 (Windows NT 10.0; Win64; x64) AppleWebKit/537.36 (KHTML, like Gecko) Chrome/131.0.0.0 Safari/537.36" version="25.0.3">
  <diagram name="Page-1" id="Ua7-tJ0lBqBw5egVZdVX">
    <mxGraphModel dx="10313" dy="4580" grid="1" gridSize="10" guides="1" tooltips="1" connect="1" arrows="1" fold="1" page="1" pageScale="1" pageWidth="850" pageHeight="1100" math="0" shadow="0">
      <root>
        <mxCell id="0" />
        <mxCell id="1" parent="0" />
        <mxCell id="SHsydusi7aNXR8TOH_lr-2" style="edgeStyle=orthogonalEdgeStyle;rounded=0;orthogonalLoop=1;jettySize=auto;html=1;exitX=1;exitY=0.5;exitDx=0;exitDy=0;entryX=0;entryY=0.5;entryDx=0;entryDy=0;startArrow=none;startFill=0;endArrow=none;endFill=0;" parent="1" source="hI_gfdGzy6ph1winZSWf-1" target="SHsydusi7aNXR8TOH_lr-1" edge="1">
          <mxGeometry relative="1" as="geometry" />
        </mxCell>
        <mxCell id="GFw0hA3Wh1s_jzPgZYi7-9" style="edgeStyle=orthogonalEdgeStyle;rounded=0;orthogonalLoop=1;jettySize=auto;html=1;exitX=0;exitY=0.5;exitDx=0;exitDy=0;entryX=1;entryY=0.5;entryDx=0;entryDy=0;endArrow=none;endFill=0;" parent="1" source="hI_gfdGzy6ph1winZSWf-1" target="GFw0hA3Wh1s_jzPgZYi7-8" edge="1">
          <mxGeometry relative="1" as="geometry" />
        </mxCell>
        <mxCell id="W91S4-fIKX1Bsy6_rblm-124" style="edgeStyle=orthogonalEdgeStyle;rounded=0;orthogonalLoop=1;jettySize=auto;html=1;exitX=1;exitY=1;exitDx=0;exitDy=0;entryX=0;entryY=0.5;entryDx=0;entryDy=0;endArrow=none;endFill=0;" edge="1" parent="1" source="hI_gfdGzy6ph1winZSWf-1" target="W91S4-fIKX1Bsy6_rblm-123">
          <mxGeometry relative="1" as="geometry">
            <mxPoint x="970" y="130" as="targetPoint" />
            <Array as="points">
              <mxPoint x="-330" y="452" />
              <mxPoint x="-330" y="472" />
              <mxPoint x="130" y="472" />
              <mxPoint x="130" y="148" />
            </Array>
          </mxGeometry>
        </mxCell>
        <mxCell id="hI_gfdGzy6ph1winZSWf-1" value="&lt;font&gt;Student&lt;/font&gt;" style="html=1;overflow=block;blockSpacing=1;whiteSpace=wrap;fontSize=16.7;spacing=9;rounded=1;absoluteArcSize=1;arcSize=9;strokeWidth=NaN;lucidId=-5fCDe--nFyr;" parent="1" vertex="1">
          <mxGeometry x="-470" y="361.75" width="120" height="90" as="geometry" />
        </mxCell>
        <mxCell id="hI_gfdGzy6ph1winZSWf-3" value="" style="html=1;jettySize=18;whiteSpace=wrap;fontSize=13;strokeColor=#3a414a;strokeOpacity=100;strokeWidth=0.8;rounded=1;arcSize=12;edgeStyle=orthogonalEdgeStyle;startArrow=none;endArrow=none;endFill=0;exitX=1;exitY=0.5;entryX=0.08;entryY=-0.008;entryPerimeter=0;lucidId=-5fCWwOb7t59;fontColor=#FFFFFF;exitDx=0;exitDy=0;" parent="1" source="GFw0hA3Wh1s_jzPgZYi7-10" target="hI_gfdGzy6ph1winZSWf-1" edge="1">
          <mxGeometry width="100" height="100" relative="1" as="geometry">
            <Array as="points" />
            <mxPoint x="-481" y="248.49700000000007" as="sourcePoint" />
          </mxGeometry>
        </mxCell>
        <mxCell id="hI_gfdGzy6ph1winZSWf-5" value="" style="html=1;jettySize=18;whiteSpace=wrap;fontSize=13;strokeColor=#3a414a;strokeOpacity=100;strokeWidth=0.8;rounded=1;arcSize=12;edgeStyle=orthogonalEdgeStyle;startArrow=none;endArrow=none;endFill=0;entryX=0.19;entryY=-0.008;entryPerimeter=0;lucidId=-5fC1u54Ux0h;fontColor=#FFFFFF;exitX=0.5;exitY=1;exitDx=0;exitDy=0;" parent="1" source="GFw0hA3Wh1s_jzPgZYi7-12" target="hI_gfdGzy6ph1winZSWf-1" edge="1">
          <mxGeometry width="100" height="100" relative="1" as="geometry">
            <Array as="points">
              <mxPoint x="-391" y="233" />
              <mxPoint x="-391" y="257" />
              <mxPoint x="-413" y="257" />
              <mxPoint x="-413" y="301" />
              <mxPoint x="-447" y="301" />
            </Array>
            <mxPoint x="-391" y="241" as="sourcePoint" />
          </mxGeometry>
        </mxCell>
        <mxCell id="hI_gfdGzy6ph1winZSWf-7" value="" style="html=1;jettySize=18;whiteSpace=wrap;fontSize=13;strokeColor=#3a414a;strokeOpacity=100;strokeWidth=0.8;rounded=1;arcSize=12;edgeStyle=orthogonalEdgeStyle;startArrow=none;endArrow=none;endFill=0;exitX=1;exitY=0.5;entryX=-0.006;entryY=0.18;entryPerimeter=0;lucidId=-5fCW.9c6O_V;fontColor=#FFFFFF;exitDx=0;exitDy=0;" parent="1" source="GFw0hA3Wh1s_jzPgZYi7-6" target="hI_gfdGzy6ph1winZSWf-1" edge="1">
          <mxGeometry width="100" height="100" relative="1" as="geometry">
            <Array as="points">
              <mxPoint x="-526" y="320" />
              <mxPoint x="-495" y="320" />
              <mxPoint x="-495" y="378" />
            </Array>
            <mxPoint x="-495.25" y="292.25" as="sourcePoint" />
          </mxGeometry>
        </mxCell>
        <mxCell id="hI_gfdGzy6ph1winZSWf-11" value="" style="html=1;jettySize=18;whiteSpace=wrap;fontSize=13;strokeColor=#3a414a;strokeOpacity=100;strokeWidth=0.8;rounded=1;arcSize=12;edgeStyle=orthogonalEdgeStyle;startArrow=none;endArrow=none;endFill=0;exitX=0.5;exitY=1;entryX=0.506;entryY=-0.008;entryPerimeter=0;lucidId=-5fCa7o3G9Ky;fontColor=#FFFFFF;exitDx=0;exitDy=0;" parent="1" source="GFw0hA3Wh1s_jzPgZYi7-19" target="hI_gfdGzy6ph1winZSWf-1" edge="1">
          <mxGeometry width="100" height="100" relative="1" as="geometry">
            <Array as="points" />
            <mxPoint x="-324" y="225.5150000000001" as="sourcePoint" />
          </mxGeometry>
        </mxCell>
        <mxCell id="hI_gfdGzy6ph1winZSWf-12" value="" style="html=1;jettySize=18;whiteSpace=wrap;fontSize=13;strokeColor=#3a414a;strokeOpacity=100;strokeWidth=0.8;rounded=1;arcSize=12;edgeStyle=orthogonalEdgeStyle;startArrow=none;endArrow=none;endFill=0;exitX=0.5;exitY=1;entryX=0.625;entryY=-0.008;entryPerimeter=0;lucidId=-5fCXH0Sx_lo;fontColor=#FFFFFF;exitDx=0;exitDy=0;" parent="1" source="GFw0hA3Wh1s_jzPgZYi7-5" target="hI_gfdGzy6ph1winZSWf-1" edge="1">
          <mxGeometry width="100" height="100" relative="1" as="geometry">
            <Array as="points" />
            <mxPoint x="-167.25" y="220.76075000000014" as="sourcePoint" />
          </mxGeometry>
        </mxCell>
        <mxCell id="hI_gfdGzy6ph1winZSWf-13" value="" style="html=1;jettySize=18;whiteSpace=wrap;fontSize=13;strokeColor=#3a414a;strokeOpacity=100;strokeWidth=0.8;rounded=1;arcSize=12;edgeStyle=orthogonalEdgeStyle;startArrow=none;endArrow=none;endFill=0;exitX=0;exitY=0.5;entryX=1.006;entryY=0.233;entryPerimeter=0;lucidId=-5fCd77pomhe;fontColor=#FFFFFF;exitDx=0;exitDy=0;" parent="1" source="W91S4-fIKX1Bsy6_rblm-11" target="hI_gfdGzy6ph1winZSWf-1" edge="1">
          <mxGeometry width="100" height="100" relative="1" as="geometry">
            <Array as="points" />
            <mxPoint x="-275.7800000000002" y="324.25" as="sourcePoint" />
          </mxGeometry>
        </mxCell>
        <mxCell id="hI_gfdGzy6ph1winZSWf-28" value="Library_Loan" style="html=1;overflow=block;blockSpacing=1;whiteSpace=wrap;fontSize=16.7;spacing=9;rounded=1;absoluteArcSize=1;arcSize=9;strokeWidth=NaN;lucidId=m-fC6xg52qdp;" parent="1" vertex="1">
          <mxGeometry x="-878" y="729.75" width="120" height="90" as="geometry" />
        </mxCell>
        <mxCell id="hI_gfdGzy6ph1winZSWf-30" value="Copy_id" style="html=1;overflow=block;blockSpacing=1;whiteSpace=wrap;ellipse;fontSize=16.7;spacing=3.8;rounded=1;absoluteArcSize=1;arcSize=9;strokeWidth=NaN;lucidId=m-fC-FjtUVk4;" parent="1" vertex="1">
          <mxGeometry x="-952" y="894.75" width="128" height="105" as="geometry" />
        </mxCell>
        <mxCell id="hI_gfdGzy6ph1winZSWf-31" value="loan_date" style="html=1;overflow=block;blockSpacing=1;whiteSpace=wrap;ellipse;fontSize=16.7;spacing=3.8;rounded=1;absoluteArcSize=1;arcSize=9;strokeWidth=NaN;lucidId=m-fC2aNS9~11;" parent="1" vertex="1">
          <mxGeometry x="-837" y="980.75" width="87" height="68" as="geometry" />
        </mxCell>
        <mxCell id="hI_gfdGzy6ph1winZSWf-32" value="" style="html=1;jettySize=18;whiteSpace=wrap;fontSize=13;strokeColor=#3a414a;strokeOpacity=100;strokeWidth=0.8;rounded=1;arcSize=12;edgeStyle=orthogonalEdgeStyle;startArrow=none;endArrow=none;endFill=0;exitX=0.5;exitY=-0.011;exitPerimeter=0;entryX=0.356;entryY=1.008;entryPerimeter=0;lucidId=m-fCaRrvBDf2;fontColor=#FFFFFF;" parent="1" source="hI_gfdGzy6ph1winZSWf-31" target="hI_gfdGzy6ph1winZSWf-28" edge="1">
          <mxGeometry width="100" height="100" relative="1" as="geometry">
            <Array as="points" />
          </mxGeometry>
        </mxCell>
        <mxCell id="hI_gfdGzy6ph1winZSWf-33" value="" style="html=1;jettySize=18;whiteSpace=wrap;fontSize=13;strokeColor=#3a414a;strokeOpacity=100;strokeWidth=0.8;rounded=1;arcSize=12;edgeStyle=orthogonalEdgeStyle;startArrow=none;endArrow=none;endFill=0;exitX=0.5;exitY=-0.007;exitPerimeter=0;entryX=0.206;entryY=1.008;entryPerimeter=0;lucidId=m-fCFaZFSlGs;fontColor=#FFFFFF;" parent="1" source="hI_gfdGzy6ph1winZSWf-30" target="hI_gfdGzy6ph1winZSWf-28" edge="1">
          <mxGeometry width="100" height="100" relative="1" as="geometry">
            <Array as="points" />
          </mxGeometry>
        </mxCell>
        <mxCell id="hI_gfdGzy6ph1winZSWf-34" value="" style="html=1;jettySize=18;whiteSpace=wrap;fontSize=13;strokeColor=#3a414a;strokeOpacity=100;strokeWidth=0.8;rounded=1;arcSize=12;edgeStyle=orthogonalEdgeStyle;startArrow=none;endArrow=none;endFill=0;exitX=1;exitY=0.5;entryX=0.081;entryY=1.008;entryPerimeter=0;lucidId=m-fCM9d6szgc;fontColor=#FFFFFF;exitDx=0;exitDy=0;" parent="1" source="GFw0hA3Wh1s_jzPgZYi7-20" target="hI_gfdGzy6ph1winZSWf-28" edge="1">
          <mxGeometry width="100" height="100" relative="1" as="geometry">
            <Array as="points">
              <mxPoint x="-960" y="850" />
              <mxPoint x="-868" y="850" />
            </Array>
            <mxPoint x="-914.2650000000001" y="857.75" as="sourcePoint" />
          </mxGeometry>
        </mxCell>
        <mxCell id="hI_gfdGzy6ph1winZSWf-35" value="due_date" style="html=1;overflow=block;blockSpacing=1;whiteSpace=wrap;ellipse;fontSize=16.7;spacing=3.8;rounded=1;absoluteArcSize=1;arcSize=9;strokeWidth=NaN;lucidId=Y-fCVFpcy78T;" parent="1" vertex="1">
          <mxGeometry x="-751" y="947.75" width="87" height="68" as="geometry" />
        </mxCell>
        <mxCell id="hI_gfdGzy6ph1winZSWf-36" value="" style="html=1;jettySize=18;whiteSpace=wrap;fontSize=13;strokeColor=#3a414a;strokeOpacity=100;strokeWidth=0.8;rounded=1;arcSize=12;edgeStyle=orthogonalEdgeStyle;startArrow=none;endArrow=none;endFill=0;exitX=0.5;exitY=-0.011;exitPerimeter=0;entryX=0.5;entryY=1.008;entryPerimeter=0;lucidId=e_fCoKJBgo0h;fontColor=#FFFFFF;" parent="1" source="hI_gfdGzy6ph1winZSWf-35" target="hI_gfdGzy6ph1winZSWf-28" edge="1">
          <mxGeometry width="100" height="100" relative="1" as="geometry">
            <Array as="points">
              <mxPoint x="-707" y="930.75" />
              <mxPoint x="-772" y="930.75" />
              <mxPoint x="-772" y="893.75" />
              <mxPoint x="-818" y="893.75" />
            </Array>
          </mxGeometry>
        </mxCell>
        <mxCell id="hI_gfdGzy6ph1winZSWf-37" value="return_date" style="html=1;overflow=block;blockSpacing=1;whiteSpace=wrap;ellipse;fontSize=16.7;spacing=3.8;rounded=1;absoluteArcSize=1;arcSize=9;strokeWidth=NaN;lucidId=E_fCexRkz6iB;" parent="1" vertex="1">
          <mxGeometry x="-734" y="849.75" width="90" height="76" as="geometry" />
        </mxCell>
        <mxCell id="hI_gfdGzy6ph1winZSWf-38" value="" style="html=1;jettySize=18;whiteSpace=wrap;fontSize=13;strokeColor=#3a414a;strokeOpacity=100;strokeWidth=0.8;rounded=1;arcSize=12;edgeStyle=orthogonalEdgeStyle;startArrow=none;endArrow=none;endFill=0;exitX=0.5;exitY=-0.011;exitPerimeter=0;entryX=0.648;entryY=1.008;entryPerimeter=0;lucidId=N_fCmRsB.gR3;fontColor=#FFFFFF;" parent="1" source="hI_gfdGzy6ph1winZSWf-37" target="hI_gfdGzy6ph1winZSWf-28" edge="1">
          <mxGeometry width="100" height="100" relative="1" as="geometry">
            <Array as="points" />
          </mxGeometry>
        </mxCell>
        <mxCell id="hI_gfdGzy6ph1winZSWf-382" style="edgeStyle=orthogonalEdgeStyle;rounded=0;orthogonalLoop=1;jettySize=auto;html=1;exitX=0.5;exitY=0;exitDx=0;exitDy=0;entryX=0.5;entryY=1;entryDx=0;entryDy=0;endArrow=none;endFill=0;" parent="1" source="hI_gfdGzy6ph1winZSWf-41" target="hI_gfdGzy6ph1winZSWf-381" edge="1">
          <mxGeometry relative="1" as="geometry" />
        </mxCell>
        <mxCell id="W91S4-fIKX1Bsy6_rblm-96" style="edgeStyle=orthogonalEdgeStyle;rounded=0;orthogonalLoop=1;jettySize=auto;html=1;exitX=0.25;exitY=0;exitDx=0;exitDy=0;endArrow=none;endFill=0;" edge="1" parent="1" source="hI_gfdGzy6ph1winZSWf-41" target="hI_gfdGzy6ph1winZSWf-381">
          <mxGeometry relative="1" as="geometry">
            <Array as="points">
              <mxPoint x="-475" y="780" />
              <mxPoint x="-430" y="780" />
            </Array>
          </mxGeometry>
        </mxCell>
        <mxCell id="hI_gfdGzy6ph1winZSWf-41" value="Club_membership" style="html=1;overflow=block;blockSpacing=1;whiteSpace=wrap;fontSize=16.7;spacing=9;rounded=1;absoluteArcSize=1;arcSize=9;strokeWidth=NaN;lucidId=t.fCab67FUKF;" parent="1" vertex="1">
          <mxGeometry x="-514" y="856.75" width="157" height="113" as="geometry" />
        </mxCell>
        <mxCell id="hI_gfdGzy6ph1winZSWf-42" value="membership_id&#x9;" style="html=1;overflow=block;blockSpacing=1;whiteSpace=wrap;ellipse;fontSize=16.7;spacing=3.8;rounded=1;absoluteArcSize=1;arcSize=9;strokeWidth=NaN;lucidId=t.fCjOATm3O8;" parent="1" vertex="1">
          <mxGeometry x="-642" y="937.75" width="128" height="113" as="geometry" />
        </mxCell>
        <mxCell id="hI_gfdGzy6ph1winZSWf-43" value="join_date" style="html=1;overflow=block;blockSpacing=1;whiteSpace=wrap;ellipse;fontSize=16.7;spacing=3.8;rounded=1;absoluteArcSize=1;arcSize=9;strokeWidth=NaN;lucidId=t.fCZW8zlsLD;" parent="1" vertex="1">
          <mxGeometry x="-552" y="1042.75" width="128" height="105" as="geometry" />
        </mxCell>
        <mxCell id="hI_gfdGzy6ph1winZSWf-44" value="role" style="html=1;overflow=block;blockSpacing=1;whiteSpace=wrap;ellipse;fontSize=16.7;spacing=3.8;rounded=1;absoluteArcSize=1;arcSize=9;strokeWidth=NaN;lucidId=t.fCHZVHSPzb;" parent="1" vertex="1">
          <mxGeometry x="-437" y="1128.75" width="87" height="68" as="geometry" />
        </mxCell>
        <mxCell id="hI_gfdGzy6ph1winZSWf-45" value="" style="html=1;jettySize=18;whiteSpace=wrap;fontSize=13;strokeColor=#3a414a;strokeOpacity=100;strokeWidth=0.8;rounded=1;arcSize=12;edgeStyle=orthogonalEdgeStyle;startArrow=none;endArrow=none;endFill=0;exitX=0.5;exitY=-0.011;exitPerimeter=0;entryX=0.357;entryY=1.007;entryPerimeter=0;lucidId=t.fCb0WrkRqj;fontColor=#FFFFFF;" parent="1" source="hI_gfdGzy6ph1winZSWf-44" target="hI_gfdGzy6ph1winZSWf-41" edge="1">
          <mxGeometry width="100" height="100" relative="1" as="geometry">
            <Array as="points">
              <mxPoint x="-393" y="1048.75" />
              <mxPoint x="-441" y="1048.75" />
              <mxPoint x="-441" y="977.75" />
              <mxPoint x="-458" y="977.75" />
            </Array>
          </mxGeometry>
        </mxCell>
        <mxCell id="hI_gfdGzy6ph1winZSWf-46" value="" style="html=1;jettySize=18;whiteSpace=wrap;fontSize=13;strokeColor=#3a414a;strokeOpacity=100;strokeWidth=0.8;rounded=1;arcSize=12;edgeStyle=orthogonalEdgeStyle;startArrow=none;endArrow=none;endFill=0;exitX=0.5;exitY=-0.007;exitPerimeter=0;entryX=0.207;entryY=1.007;entryPerimeter=0;lucidId=t.fCNSVzFDW5;fontColor=#FFFFFF;" parent="1" source="hI_gfdGzy6ph1winZSWf-43" target="hI_gfdGzy6ph1winZSWf-41" edge="1">
          <mxGeometry width="100" height="100" relative="1" as="geometry">
            <Array as="points" />
          </mxGeometry>
        </mxCell>
        <mxCell id="hI_gfdGzy6ph1winZSWf-47" value="" style="html=1;jettySize=18;whiteSpace=wrap;fontSize=13;strokeColor=#3a414a;strokeOpacity=100;strokeWidth=0.8;rounded=1;arcSize=12;edgeStyle=orthogonalEdgeStyle;startArrow=none;endArrow=none;endFill=0;exitX=1.006;exitY=0.5;exitPerimeter=0;entryX=0.083;entryY=1.007;entryPerimeter=0;lucidId=t.fC7XLdiKbD;fontColor=#FFFFFF;" parent="1" source="hI_gfdGzy6ph1winZSWf-42" target="hI_gfdGzy6ph1winZSWf-41" edge="1">
          <mxGeometry width="100" height="100" relative="1" as="geometry">
            <Array as="points" />
          </mxGeometry>
        </mxCell>
        <mxCell id="hI_gfdGzy6ph1winZSWf-377" style="edgeStyle=orthogonalEdgeStyle;rounded=0;orthogonalLoop=1;jettySize=auto;html=1;exitX=0.5;exitY=0;exitDx=0;exitDy=0;entryX=1;entryY=0.5;entryDx=0;entryDy=0;endArrow=none;endFill=0;" parent="1" source="hI_gfdGzy6ph1winZSWf-50" target="hI_gfdGzy6ph1winZSWf-376" edge="1">
          <mxGeometry relative="1" as="geometry" />
        </mxCell>
        <mxCell id="hI_gfdGzy6ph1winZSWf-50" value="Research_assistant" style="html=1;overflow=block;blockSpacing=1;whiteSpace=wrap;fontSize=16.7;spacing=9;rounded=1;absoluteArcSize=1;arcSize=9;strokeWidth=NaN;lucidId=C~fCS3e-xRTn;" parent="1" vertex="1">
          <mxGeometry x="-245.75" y="860.75" width="157" height="107" as="geometry" />
        </mxCell>
        <mxCell id="hI_gfdGzy6ph1winZSWf-51" value="assistant_id" style="html=1;overflow=block;blockSpacing=1;whiteSpace=wrap;ellipse;fontSize=16.7;spacing=3.8;rounded=1;absoluteArcSize=1;arcSize=9;strokeWidth=NaN;lucidId=C~fCTZYgPVfo;" parent="1" vertex="1">
          <mxGeometry x="-350.75" y="959.75" width="105" height="90" as="geometry" />
        </mxCell>
        <mxCell id="hI_gfdGzy6ph1winZSWf-52" value="start_date" style="html=1;overflow=block;blockSpacing=1;whiteSpace=wrap;ellipse;fontSize=16.7;spacing=3.8;rounded=1;absoluteArcSize=1;arcSize=9;strokeWidth=NaN;lucidId=C~fCIbxxVRaa;" parent="1" vertex="1">
          <mxGeometry x="-282.75" y="1057.75" width="87" height="90" as="geometry" />
        </mxCell>
        <mxCell id="hI_gfdGzy6ph1winZSWf-53" value="end_date" style="html=1;overflow=block;blockSpacing=1;whiteSpace=wrap;ellipse;fontSize=16.7;spacing=3.8;rounded=1;absoluteArcSize=1;arcSize=9;strokeWidth=NaN;lucidId=C~fCJxZ1-JQj;" parent="1" vertex="1">
          <mxGeometry x="-200.75" y="1115.75" width="87" height="68" as="geometry" />
        </mxCell>
        <mxCell id="hI_gfdGzy6ph1winZSWf-54" value="" style="html=1;jettySize=18;whiteSpace=wrap;fontSize=13;strokeColor=#3a414a;strokeOpacity=100;strokeWidth=0.8;rounded=1;arcSize=12;edgeStyle=orthogonalEdgeStyle;startArrow=none;endArrow=none;endFill=0;exitX=0.5;exitY=-0.011;exitPerimeter=0;entryX=0.357;entryY=1.007;entryPerimeter=0;lucidId=C~fC2Us7JskX;fontColor=#FFFFFF;" parent="1" source="hI_gfdGzy6ph1winZSWf-53" target="hI_gfdGzy6ph1winZSWf-50" edge="1">
          <mxGeometry width="100" height="100" relative="1" as="geometry">
            <Array as="points" />
          </mxGeometry>
        </mxCell>
        <mxCell id="hI_gfdGzy6ph1winZSWf-55" value="" style="html=1;jettySize=18;whiteSpace=wrap;fontSize=13;strokeColor=#3a414a;strokeOpacity=100;strokeWidth=0.8;rounded=1;arcSize=12;edgeStyle=orthogonalEdgeStyle;startArrow=none;endArrow=none;endFill=0;exitX=0.5;exitY=-0.008;exitPerimeter=0;entryX=0.207;entryY=1.007;entryPerimeter=0;lucidId=C~fCcJHAK5i9;fontColor=#FFFFFF;" parent="1" source="hI_gfdGzy6ph1winZSWf-52" target="hI_gfdGzy6ph1winZSWf-50" edge="1">
          <mxGeometry width="100" height="100" relative="1" as="geometry">
            <Array as="points" />
          </mxGeometry>
        </mxCell>
        <mxCell id="hI_gfdGzy6ph1winZSWf-56" value="" style="html=1;jettySize=18;whiteSpace=wrap;fontSize=13;strokeColor=#3a414a;strokeOpacity=100;strokeWidth=0.8;rounded=1;arcSize=12;edgeStyle=orthogonalEdgeStyle;startArrow=none;endArrow=none;endFill=0;exitX=1.007;exitY=0.5;exitPerimeter=0;entryX=0.082;entryY=1.007;entryPerimeter=0;lucidId=C~fCS-LB94TB;fontColor=#FFFFFF;" parent="1" source="hI_gfdGzy6ph1winZSWf-51" target="hI_gfdGzy6ph1winZSWf-50" edge="1">
          <mxGeometry width="100" height="100" relative="1" as="geometry">
            <Array as="points">
              <mxPoint x="-230.75" y="1004.75" />
              <mxPoint x="-230.75" y="985.75" />
              <mxPoint x="-232.75" y="985.75" />
            </Array>
          </mxGeometry>
        </mxCell>
        <mxCell id="hI_gfdGzy6ph1winZSWf-57" value="role" style="html=1;overflow=block;blockSpacing=1;whiteSpace=wrap;ellipse;fontSize=16.7;spacing=3.8;rounded=1;absoluteArcSize=1;arcSize=9;strokeWidth=NaN;lucidId=C~fCYBljTBb6;" parent="1" vertex="1">
          <mxGeometry x="-113.75" y="1100.75" width="87" height="68" as="geometry" />
        </mxCell>
        <mxCell id="hI_gfdGzy6ph1winZSWf-58" value="" style="html=1;jettySize=18;whiteSpace=wrap;fontSize=13;strokeColor=#3a414a;strokeOpacity=100;strokeWidth=0.8;rounded=1;arcSize=12;edgeStyle=orthogonalEdgeStyle;startArrow=none;endArrow=none;endFill=0;exitX=0.5;exitY=-0.011;exitPerimeter=0;entryX=0.5;entryY=1.007;entryPerimeter=0;lucidId=C~fCCLCwnZQT;fontColor=#FFFFFF;" parent="1" source="hI_gfdGzy6ph1winZSWf-57" target="hI_gfdGzy6ph1winZSWf-50" edge="1">
          <mxGeometry width="100" height="100" relative="1" as="geometry">
            <Array as="points">
              <mxPoint x="-70.75" y="1078.75" />
              <mxPoint x="-102.75" y="1078.75" />
              <mxPoint x="-102.75" y="1033.75" />
              <mxPoint x="-167.75" y="1033.75" />
            </Array>
          </mxGeometry>
        </mxCell>
        <mxCell id="hI_gfdGzy6ph1winZSWf-110" style="edgeStyle=orthogonalEdgeStyle;rounded=0;orthogonalLoop=1;jettySize=auto;html=1;entryX=0.586;entryY=0.996;entryDx=0;entryDy=0;entryPerimeter=0;endArrow=none;endFill=0;" parent="1" source="hI_gfdGzy6ph1winZSWf-367" target="hI_gfdGzy6ph1winZSWf-1" edge="1">
          <mxGeometry relative="1" as="geometry">
            <mxPoint x="-400" y="456.75" as="targetPoint" />
            <Array as="points">
              <mxPoint x="-340" y="736.75" />
              <mxPoint x="-340" y="556.75" />
              <mxPoint x="-400" y="556.75" />
            </Array>
          </mxGeometry>
        </mxCell>
        <mxCell id="hI_gfdGzy6ph1winZSWf-348" style="edgeStyle=orthogonalEdgeStyle;rounded=0;orthogonalLoop=1;jettySize=auto;html=1;exitX=0.75;exitY=0;exitDx=0;exitDy=0;entryX=0;entryY=0.5;entryDx=0;entryDy=0;" parent="1" source="hI_gfdGzy6ph1winZSWf-70" target="hI_gfdGzy6ph1winZSWf-346" edge="1">
          <mxGeometry relative="1" as="geometry" />
        </mxCell>
        <mxCell id="hI_gfdGzy6ph1winZSWf-370" style="edgeStyle=orthogonalEdgeStyle;rounded=0;orthogonalLoop=1;jettySize=auto;html=1;exitX=0.5;exitY=0;exitDx=0;exitDy=0;entryX=0.997;entryY=0.478;entryDx=0;entryDy=0;entryPerimeter=0;endArrow=none;endFill=0;" parent="1" source="hI_gfdGzy6ph1winZSWf-70" target="hI_gfdGzy6ph1winZSWf-367" edge="1">
          <mxGeometry relative="1" as="geometry">
            <mxPoint x="124" y="796.75" as="targetPoint" />
          </mxGeometry>
        </mxCell>
        <mxCell id="hI_gfdGzy6ph1winZSWf-70" value="Academic_Advisory&lt;span style=&quot;white-space: pre;&quot;&gt;&#x9;&lt;/span&gt;" style="html=1;overflow=block;blockSpacing=1;whiteSpace=wrap;fontSize=16.7;spacing=9;rounded=1;absoluteArcSize=1;arcSize=9;strokeWidth=NaN;lucidId=C~fCS3e-xRTn;" parent="1" vertex="1">
          <mxGeometry x="45" y="812.75" width="157" height="107" as="geometry" />
        </mxCell>
        <mxCell id="hI_gfdGzy6ph1winZSWf-72" value="advisory_date" style="html=1;overflow=block;blockSpacing=1;whiteSpace=wrap;ellipse;fontSize=16.7;spacing=3.8;rounded=1;absoluteArcSize=1;arcSize=9;strokeWidth=NaN;lucidId=C~fCIbxxVRaa;" parent="1" vertex="1">
          <mxGeometry x="-20" y="1009.75" width="115" height="113" as="geometry" />
        </mxCell>
        <mxCell id="W91S4-fIKX1Bsy6_rblm-106" style="edgeStyle=orthogonalEdgeStyle;rounded=0;orthogonalLoop=1;jettySize=auto;html=1;exitX=1;exitY=0;exitDx=0;exitDy=0;entryX=0;entryY=1;entryDx=0;entryDy=0;endArrow=none;endFill=0;" edge="1" parent="1" source="hI_gfdGzy6ph1winZSWf-73" target="hI_gfdGzy6ph1winZSWf-367">
          <mxGeometry relative="1" as="geometry" />
        </mxCell>
        <mxCell id="hI_gfdGzy6ph1winZSWf-73" value="notes" style="html=1;overflow=block;blockSpacing=1;whiteSpace=wrap;ellipse;fontSize=16.7;spacing=3.8;rounded=1;absoluteArcSize=1;arcSize=9;strokeWidth=NaN;lucidId=C~fCJxZ1-JQj;" parent="1" vertex="1">
          <mxGeometry x="-130" y="771.5" width="70" height="48.5" as="geometry" />
        </mxCell>
        <mxCell id="hI_gfdGzy6ph1winZSWf-75" value="" style="html=1;jettySize=18;whiteSpace=wrap;fontSize=13;strokeColor=#3a414a;strokeOpacity=100;strokeWidth=0.8;rounded=1;arcSize=12;edgeStyle=orthogonalEdgeStyle;startArrow=none;endArrow=none;endFill=0;exitX=0.5;exitY=-0.008;exitPerimeter=0;entryX=0.207;entryY=1.007;entryPerimeter=0;lucidId=C~fCcJHAK5i9;fontColor=#FFFFFF;" parent="1" source="hI_gfdGzy6ph1winZSWf-72" target="hI_gfdGzy6ph1winZSWf-70" edge="1">
          <mxGeometry width="100" height="100" relative="1" as="geometry">
            <Array as="points" />
          </mxGeometry>
        </mxCell>
        <mxCell id="hI_gfdGzy6ph1winZSWf-76" value="" style="html=1;jettySize=18;whiteSpace=wrap;fontSize=13;strokeColor=#3a414a;strokeOpacity=100;strokeWidth=0.8;rounded=1;arcSize=12;edgeStyle=orthogonalEdgeStyle;startArrow=none;endArrow=none;endFill=0;exitX=1;exitY=0.5;entryX=0.082;entryY=1.007;entryPerimeter=0;lucidId=C~fCS-LB94TB;fontColor=#FFFFFF;exitDx=0;exitDy=0;" parent="1" source="GFw0hA3Wh1s_jzPgZYi7-21" target="hI_gfdGzy6ph1winZSWf-70" edge="1">
          <mxGeometry width="100" height="100" relative="1" as="geometry">
            <Array as="points">
              <mxPoint x="30" y="958" />
              <mxPoint x="30" y="950" />
              <mxPoint x="60" y="950" />
              <mxPoint x="60" y="938" />
              <mxPoint x="58" y="938" />
            </Array>
            <mxPoint x="45.73500000000013" y="956.75" as="sourcePoint" />
          </mxGeometry>
        </mxCell>
        <mxCell id="hI_gfdGzy6ph1winZSWf-355" style="edgeStyle=orthogonalEdgeStyle;rounded=0;orthogonalLoop=1;jettySize=auto;html=1;exitX=0.5;exitY=0;exitDx=0;exitDy=0;entryX=0.5;entryY=1;entryDx=0;entryDy=0;endArrow=none;endFill=0;" parent="1" source="hI_gfdGzy6ph1winZSWf-84" target="hI_gfdGzy6ph1winZSWf-354" edge="1">
          <mxGeometry relative="1" as="geometry" />
        </mxCell>
        <mxCell id="GFw0hA3Wh1s_jzPgZYi7-27" style="edgeStyle=orthogonalEdgeStyle;rounded=0;orthogonalLoop=1;jettySize=auto;html=1;exitX=0;exitY=1;exitDx=0;exitDy=0;endArrow=none;endFill=0;" parent="1" source="hI_gfdGzy6ph1winZSWf-84" target="GFw0hA3Wh1s_jzPgZYi7-22" edge="1">
          <mxGeometry relative="1" as="geometry">
            <Array as="points">
              <mxPoint x="410" y="949" />
              <mxPoint x="410" y="1005" />
              <mxPoint x="350" y="1005" />
            </Array>
          </mxGeometry>
        </mxCell>
        <mxCell id="hI_gfdGzy6ph1winZSWf-84" value="Tuition" style="html=1;overflow=block;blockSpacing=1;whiteSpace=wrap;fontSize=16.7;spacing=9;rounded=1;absoluteArcSize=1;arcSize=9;strokeWidth=NaN;lucidId=C~fCS3e-xRTn;" parent="1" vertex="1">
          <mxGeometry x="487" y="842" width="157" height="107" as="geometry" />
        </mxCell>
        <mxCell id="hI_gfdGzy6ph1winZSWf-87" value="due_date" style="html=1;overflow=block;blockSpacing=1;whiteSpace=wrap;ellipse;fontSize=16.7;spacing=3.8;rounded=1;absoluteArcSize=1;arcSize=9;strokeWidth=NaN;lucidId=C~fCJxZ1-JQj;" parent="1" vertex="1">
          <mxGeometry x="532" y="1097" width="87" height="68" as="geometry" />
        </mxCell>
        <mxCell id="hI_gfdGzy6ph1winZSWf-88" value="" style="html=1;jettySize=18;whiteSpace=wrap;fontSize=13;strokeColor=#3a414a;strokeOpacity=100;strokeWidth=0.8;rounded=1;arcSize=12;edgeStyle=orthogonalEdgeStyle;startArrow=none;endArrow=none;endFill=0;exitX=0.5;exitY=-0.011;exitPerimeter=0;entryX=0.357;entryY=1.007;entryPerimeter=0;lucidId=C~fC2Us7JskX;fontColor=#FFFFFF;" parent="1" source="hI_gfdGzy6ph1winZSWf-87" target="hI_gfdGzy6ph1winZSWf-84" edge="1">
          <mxGeometry width="100" height="100" relative="1" as="geometry">
            <Array as="points" />
          </mxGeometry>
        </mxCell>
        <mxCell id="hI_gfdGzy6ph1winZSWf-91" value="status" style="html=1;overflow=block;blockSpacing=1;whiteSpace=wrap;ellipse;fontSize=16.7;spacing=3.8;rounded=1;absoluteArcSize=1;arcSize=9;strokeWidth=NaN;lucidId=C~fCYBljTBb6;" parent="1" vertex="1">
          <mxGeometry x="619" y="1082" width="87" height="68" as="geometry" />
        </mxCell>
        <mxCell id="hI_gfdGzy6ph1winZSWf-92" value="" style="html=1;jettySize=18;whiteSpace=wrap;fontSize=13;strokeColor=#3a414a;strokeOpacity=100;strokeWidth=0.8;rounded=1;arcSize=12;edgeStyle=orthogonalEdgeStyle;startArrow=none;endArrow=none;endFill=0;exitX=0.5;exitY=-0.011;exitPerimeter=0;entryX=0.5;entryY=1.007;entryPerimeter=0;lucidId=C~fCCLCwnZQT;fontColor=#FFFFFF;" parent="1" source="hI_gfdGzy6ph1winZSWf-91" target="hI_gfdGzy6ph1winZSWf-84" edge="1">
          <mxGeometry width="100" height="100" relative="1" as="geometry">
            <Array as="points">
              <mxPoint x="662" y="1060" />
              <mxPoint x="630" y="1060" />
              <mxPoint x="630" y="1015" />
              <mxPoint x="565" y="1015" />
            </Array>
          </mxGeometry>
        </mxCell>
        <mxCell id="hI_gfdGzy6ph1winZSWf-97" value="Attendance" style="html=1;overflow=block;blockSpacing=1;whiteSpace=wrap;fontSize=16.7;spacing=9;rounded=1;absoluteArcSize=1;arcSize=9;strokeWidth=NaN;lucidId=C~fCS3e-xRTn;" parent="1" vertex="1">
          <mxGeometry x="797" y="842" width="157" height="107" as="geometry" />
        </mxCell>
        <mxCell id="hI_gfdGzy6ph1winZSWf-99" value="date" style="html=1;overflow=block;blockSpacing=1;whiteSpace=wrap;ellipse;fontSize=16.7;spacing=3.8;rounded=1;absoluteArcSize=1;arcSize=9;strokeWidth=NaN;lucidId=C~fCIbxxVRaa;" parent="1" vertex="1">
          <mxGeometry x="760" y="1039" width="87" height="90" as="geometry" />
        </mxCell>
        <mxCell id="hI_gfdGzy6ph1winZSWf-100" value="status" style="html=1;overflow=block;blockSpacing=1;whiteSpace=wrap;ellipse;fontSize=16.7;spacing=3.8;rounded=1;absoluteArcSize=1;arcSize=9;strokeWidth=NaN;lucidId=C~fCJxZ1-JQj;" parent="1" vertex="1">
          <mxGeometry x="842" y="1097" width="87" height="68" as="geometry" />
        </mxCell>
        <mxCell id="hI_gfdGzy6ph1winZSWf-101" value="" style="html=1;jettySize=18;whiteSpace=wrap;fontSize=13;strokeOpacity=100;strokeWidth=0.8;rounded=1;arcSize=12;edgeStyle=orthogonalEdgeStyle;startArrow=none;endArrow=none;endFill=0;exitX=0.5;exitY=-0.011;exitPerimeter=0;entryX=0.357;entryY=1.007;entryPerimeter=0;lucidId=C~fC2Us7JskX;fontColor=#FFFFFF;" parent="1" source="hI_gfdGzy6ph1winZSWf-100" target="hI_gfdGzy6ph1winZSWf-97" edge="1">
          <mxGeometry width="100" height="100" relative="1" as="geometry">
            <Array as="points" />
          </mxGeometry>
        </mxCell>
        <mxCell id="hI_gfdGzy6ph1winZSWf-102" value="" style="html=1;jettySize=18;whiteSpace=wrap;fontSize=13;strokeOpacity=100;strokeWidth=0.8;rounded=1;arcSize=12;edgeStyle=orthogonalEdgeStyle;startArrow=none;endArrow=none;endFill=0;exitX=0.5;exitY=-0.008;exitPerimeter=0;entryX=0.207;entryY=1.007;entryPerimeter=0;lucidId=C~fCcJHAK5i9;fontColor=#FFFFFF;" parent="1" source="hI_gfdGzy6ph1winZSWf-99" target="hI_gfdGzy6ph1winZSWf-97" edge="1">
          <mxGeometry width="100" height="100" relative="1" as="geometry">
            <Array as="points" />
          </mxGeometry>
        </mxCell>
        <mxCell id="hI_gfdGzy6ph1winZSWf-111" style="edgeStyle=orthogonalEdgeStyle;rounded=0;orthogonalLoop=1;jettySize=auto;html=1;entryX=0.681;entryY=0.987;entryDx=0;entryDy=0;entryPerimeter=0;endArrow=none;endFill=0;" parent="1" source="hI_gfdGzy6ph1winZSWf-354" target="hI_gfdGzy6ph1winZSWf-1" edge="1">
          <mxGeometry relative="1" as="geometry">
            <Array as="points">
              <mxPoint x="402" y="676.75" />
              <mxPoint x="-320" y="676.75" />
              <mxPoint x="-320" y="536.75" />
              <mxPoint x="-388" y="536.75" />
            </Array>
          </mxGeometry>
        </mxCell>
        <mxCell id="hI_gfdGzy6ph1winZSWf-113" style="edgeStyle=orthogonalEdgeStyle;rounded=0;orthogonalLoop=1;jettySize=auto;html=1;endArrow=none;endFill=0;" parent="1" source="hI_gfdGzy6ph1winZSWf-365" target="hI_gfdGzy6ph1winZSWf-1" edge="1">
          <mxGeometry relative="1" as="geometry">
            <Array as="points">
              <mxPoint x="-300" y="607" />
              <mxPoint x="-300" y="517" />
              <mxPoint x="-380" y="517" />
            </Array>
          </mxGeometry>
        </mxCell>
        <mxCell id="hI_gfdGzy6ph1winZSWf-127" value="Department" style="html=1;overflow=block;blockSpacing=1;whiteSpace=wrap;fontSize=16.7;spacing=9;rounded=1;absoluteArcSize=1;arcSize=9;strokeWidth=NaN;lucidId=C~fCS3e-xRTn;" parent="1" vertex="1">
          <mxGeometry x="2125" y="465" width="157" height="107" as="geometry" />
        </mxCell>
        <mxCell id="hI_gfdGzy6ph1winZSWf-128" value="department_id" style="html=1;overflow=block;blockSpacing=1;whiteSpace=wrap;ellipse;fontSize=16.7;spacing=3.8;rounded=1;absoluteArcSize=1;arcSize=9;strokeWidth=NaN;lucidId=C~fCTZYgPVfo;" parent="1" vertex="1">
          <mxGeometry x="1880" y="465" width="115" height="92.5" as="geometry" />
        </mxCell>
        <mxCell id="hI_gfdGzy6ph1winZSWf-138" style="edgeStyle=orthogonalEdgeStyle;rounded=0;orthogonalLoop=1;jettySize=auto;html=1;entryX=0;entryY=0.5;entryDx=0;entryDy=0;endArrow=none;endFill=0;" parent="1" source="hI_gfdGzy6ph1winZSWf-129" target="hI_gfdGzy6ph1winZSWf-127" edge="1">
          <mxGeometry relative="1" as="geometry" />
        </mxCell>
        <mxCell id="hI_gfdGzy6ph1winZSWf-129" value="name" style="html=1;overflow=block;blockSpacing=1;whiteSpace=wrap;ellipse;fontSize=16.7;spacing=3.8;rounded=1;absoluteArcSize=1;arcSize=9;strokeWidth=NaN;lucidId=C~fCIbxxVRaa;" parent="1" vertex="1">
          <mxGeometry x="1894" y="590" width="87" height="90" as="geometry" />
        </mxCell>
        <mxCell id="hI_gfdGzy6ph1winZSWf-130" value="budget" style="html=1;overflow=block;blockSpacing=1;whiteSpace=wrap;ellipse;fontSize=16.7;spacing=3.8;rounded=1;absoluteArcSize=1;arcSize=9;strokeWidth=NaN;lucidId=C~fCJxZ1-JQj;" parent="1" vertex="1">
          <mxGeometry x="1920" y="370" width="87" height="68" as="geometry" />
        </mxCell>
        <mxCell id="hI_gfdGzy6ph1winZSWf-135" style="edgeStyle=orthogonalEdgeStyle;rounded=0;orthogonalLoop=1;jettySize=auto;html=1;entryX=0.005;entryY=0.204;entryDx=0;entryDy=0;entryPerimeter=0;endArrow=none;endFill=0;" parent="1" source="hI_gfdGzy6ph1winZSWf-130" target="hI_gfdGzy6ph1winZSWf-127" edge="1">
          <mxGeometry relative="1" as="geometry" />
        </mxCell>
        <mxCell id="hI_gfdGzy6ph1winZSWf-136" style="edgeStyle=orthogonalEdgeStyle;rounded=0;orthogonalLoop=1;jettySize=auto;html=1;entryX=0.005;entryY=0.385;entryDx=0;entryDy=0;entryPerimeter=0;endArrow=none;endFill=0;" parent="1" source="hI_gfdGzy6ph1winZSWf-128" target="hI_gfdGzy6ph1winZSWf-127" edge="1">
          <mxGeometry relative="1" as="geometry" />
        </mxCell>
        <mxCell id="W91S4-fIKX1Bsy6_rblm-125" style="edgeStyle=orthogonalEdgeStyle;rounded=0;orthogonalLoop=1;jettySize=auto;html=1;endArrow=none;endFill=0;" edge="1" parent="1" source="hI_gfdGzy6ph1winZSWf-139" target="W91S4-fIKX1Bsy6_rblm-123">
          <mxGeometry relative="1" as="geometry">
            <Array as="points">
              <mxPoint x="2740" y="210" />
              <mxPoint x="1020" y="210" />
            </Array>
          </mxGeometry>
        </mxCell>
        <mxCell id="hI_gfdGzy6ph1winZSWf-139" value="Faculty" style="html=1;overflow=block;blockSpacing=1;whiteSpace=wrap;fontSize=16.7;spacing=9;strokeColor=#unset;rounded=1;absoluteArcSize=1;arcSize=9;fillColor=#unset;strokeWidth=NaN;lucidId=C~fCS3e-xRTn;fontColor=#FFFFFF;" parent="1" vertex="1">
          <mxGeometry x="2690" y="11" width="157" height="107" as="geometry" />
        </mxCell>
        <mxCell id="hI_gfdGzy6ph1winZSWf-147" value="faculty_id" style="html=1;overflow=block;blockSpacing=1;whiteSpace=wrap;ellipse;fontSize=16.7;spacing=3.8;strokeColor=#unset;rounded=1;absoluteArcSize=1;arcSize=9;fillColor=#unset;strokeWidth=NaN;lucidId=C~fCTZYgPVfo;fontColor=#FFFFFF;" parent="1" vertex="1">
          <mxGeometry x="2500" y="-160" width="115" height="92.5" as="geometry" />
        </mxCell>
        <mxCell id="hI_gfdGzy6ph1winZSWf-155" style="edgeStyle=orthogonalEdgeStyle;rounded=0;orthogonalLoop=1;jettySize=auto;html=1;exitX=1;exitY=1;exitDx=0;exitDy=0;" parent="1" source="hI_gfdGzy6ph1winZSWf-148" edge="1">
          <mxGeometry relative="1" as="geometry">
            <mxPoint x="2730" y="10" as="targetPoint" />
          </mxGeometry>
        </mxCell>
        <mxCell id="hI_gfdGzy6ph1winZSWf-148" value="name&lt;span style=&quot;color: rgba(0, 0, 0, 0); font-family: monospace; font-size: 0px; text-align: start; text-wrap: nowrap;&quot;&gt;%3CmxGraphModel%3E%3Croot%3E%3CmxCell%20id%3D%220%22%2F%3E%3CmxCell%20id%3D%221%22%20parent%3D%220%22%2F%3E%3CmxCell%20id%3D%222%22%20value%3D%22faculty_id%22%20style%3D%22html%3D1%3Boverflow%3Dblock%3BblockSpacing%3D1%3BwhiteSpace%3Dwrap%3Bellipse%3BfontSize%3D16.7%3Bspacing%3D3.8%3BstrokeColor%3D%23unset%3Brounded%3D1%3BabsoluteArcSize%3D1%3BarcSize%3D9%3BfillColor%3D%23unset%3BstrokeWidth%3DNaN%3BlucidId%3DC~fCTZYgPVfo%3BfontColor%3D%23FFFFFF%3B%22%20vertex%3D%221%22%20parent%3D%221%22%3E%3CmxGeometry%20x%3D%222500%22%20y%3D%22-160%22%20width%3D%22115%22%20height%3D%2292.5%22%20as%3D%22geometry%22%2F%3E%3C%2FmxCell%3E%3C%2Froot%3E%3C%2FmxGraphModel%3E&lt;/span&gt;" style="html=1;overflow=block;blockSpacing=1;whiteSpace=wrap;ellipse;fontSize=16.7;spacing=3.8;strokeColor=#unset;rounded=1;absoluteArcSize=1;arcSize=9;fillColor=#unset;strokeWidth=NaN;lucidId=C~fCTZYgPVfo;fontColor=#FFFFFF;" parent="1" vertex="1">
          <mxGeometry x="2620" y="-190" width="115" height="92.5" as="geometry" />
        </mxCell>
        <mxCell id="hI_gfdGzy6ph1winZSWf-149" value="email" style="html=1;overflow=block;blockSpacing=1;whiteSpace=wrap;ellipse;fontSize=16.7;spacing=3.8;strokeColor=#unset;rounded=1;absoluteArcSize=1;arcSize=9;fillColor=#unset;strokeWidth=NaN;lucidId=C~fCTZYgPVfo;fontColor=#FFFFFF;" parent="1" vertex="1">
          <mxGeometry x="2750" y="-200" width="115" height="92.5" as="geometry" />
        </mxCell>
        <mxCell id="hI_gfdGzy6ph1winZSWf-158" style="edgeStyle=orthogonalEdgeStyle;rounded=0;orthogonalLoop=1;jettySize=auto;html=1;exitX=0;exitY=1;exitDx=0;exitDy=0;" parent="1" source="hI_gfdGzy6ph1winZSWf-150" target="hI_gfdGzy6ph1winZSWf-139" edge="1">
          <mxGeometry relative="1" as="geometry">
            <Array as="points">
              <mxPoint x="2790" y="-91" />
            </Array>
          </mxGeometry>
        </mxCell>
        <mxCell id="hI_gfdGzy6ph1winZSWf-150" value="phone" style="html=1;overflow=block;blockSpacing=1;whiteSpace=wrap;ellipse;fontSize=16.7;spacing=3.8;strokeColor=#unset;rounded=1;absoluteArcSize=1;arcSize=9;fillColor=#unset;strokeWidth=NaN;lucidId=C~fCTZYgPVfo;fontColor=#FFFFFF;" parent="1" vertex="1">
          <mxGeometry x="2880" y="-170" width="115" height="92.5" as="geometry" />
        </mxCell>
        <mxCell id="hI_gfdGzy6ph1winZSWf-159" style="edgeStyle=orthogonalEdgeStyle;rounded=0;orthogonalLoop=1;jettySize=auto;html=1;exitX=0;exitY=0.5;exitDx=0;exitDy=0;entryX=0.75;entryY=0;entryDx=0;entryDy=0;" parent="1" source="hI_gfdGzy6ph1winZSWf-151" target="hI_gfdGzy6ph1winZSWf-139" edge="1">
          <mxGeometry relative="1" as="geometry" />
        </mxCell>
        <mxCell id="hI_gfdGzy6ph1winZSWf-151" value="specialization" style="html=1;overflow=block;blockSpacing=1;whiteSpace=wrap;ellipse;fontSize=16.7;spacing=3.8;strokeColor=#unset;rounded=1;absoluteArcSize=1;arcSize=9;fillColor=#unset;strokeWidth=NaN;lucidId=C~fCTZYgPVfo;fontColor=#FFFFFF;" parent="1" vertex="1">
          <mxGeometry x="3090" y="-97.5" width="115" height="92.5" as="geometry" />
        </mxCell>
        <mxCell id="hI_gfdGzy6ph1winZSWf-152" value="hire_date" style="html=1;overflow=block;blockSpacing=1;whiteSpace=wrap;ellipse;fontSize=16.7;spacing=3.8;strokeColor=#unset;rounded=1;absoluteArcSize=1;arcSize=9;fillColor=#unset;strokeWidth=NaN;lucidId=C~fCTZYgPVfo;fontColor=#FFFFFF;" parent="1" vertex="1">
          <mxGeometry x="2410" y="-77.5" width="115" height="92.5" as="geometry" />
        </mxCell>
        <mxCell id="hI_gfdGzy6ph1winZSWf-153" style="edgeStyle=orthogonalEdgeStyle;rounded=0;orthogonalLoop=1;jettySize=auto;html=1;exitX=1;exitY=0.5;exitDx=0;exitDy=0;entryX=0;entryY=0.154;entryDx=0;entryDy=0;entryPerimeter=0;" parent="1" source="hI_gfdGzy6ph1winZSWf-152" target="hI_gfdGzy6ph1winZSWf-139" edge="1">
          <mxGeometry relative="1" as="geometry" />
        </mxCell>
        <mxCell id="hI_gfdGzy6ph1winZSWf-154" style="edgeStyle=orthogonalEdgeStyle;rounded=0;orthogonalLoop=1;jettySize=auto;html=1;exitX=1;exitY=1;exitDx=0;exitDy=0;entryX=0.064;entryY=0.019;entryDx=0;entryDy=0;entryPerimeter=0;" parent="1" source="hI_gfdGzy6ph1winZSWf-147" target="hI_gfdGzy6ph1winZSWf-139" edge="1">
          <mxGeometry relative="1" as="geometry" />
        </mxCell>
        <mxCell id="hI_gfdGzy6ph1winZSWf-156" style="edgeStyle=orthogonalEdgeStyle;rounded=0;orthogonalLoop=1;jettySize=auto;html=1;exitX=0;exitY=1;exitDx=0;exitDy=0;entryX=0.439;entryY=0.071;entryDx=0;entryDy=0;entryPerimeter=0;" parent="1" source="hI_gfdGzy6ph1winZSWf-149" target="hI_gfdGzy6ph1winZSWf-139" edge="1">
          <mxGeometry relative="1" as="geometry" />
        </mxCell>
        <mxCell id="hI_gfdGzy6ph1winZSWf-160" style="edgeStyle=orthogonalEdgeStyle;rounded=0;orthogonalLoop=1;jettySize=auto;html=1;exitX=0.5;exitY=0;exitDx=0;exitDy=0;endArrow=none;endFill=0;" parent="1" source="hI_gfdGzy6ph1winZSWf-324" target="hI_gfdGzy6ph1winZSWf-139" edge="1">
          <mxGeometry relative="1" as="geometry">
            <Array as="points">
              <mxPoint x="2380" y="292" />
              <mxPoint x="2760" y="292" />
            </Array>
          </mxGeometry>
        </mxCell>
        <mxCell id="hI_gfdGzy6ph1winZSWf-219" style="edgeStyle=orthogonalEdgeStyle;rounded=0;orthogonalLoop=1;jettySize=auto;html=1;exitX=0.5;exitY=0;exitDx=0;exitDy=0;endArrow=none;endFill=0;" parent="1" source="hI_gfdGzy6ph1winZSWf-322" target="hI_gfdGzy6ph1winZSWf-139" edge="1">
          <mxGeometry relative="1" as="geometry">
            <mxPoint x="2780" y="200" as="targetPoint" />
            <Array as="points">
              <mxPoint x="2881" y="191" />
              <mxPoint x="2780" y="191" />
            </Array>
          </mxGeometry>
        </mxCell>
        <mxCell id="hI_gfdGzy6ph1winZSWf-208" value="Research_project" style="html=1;overflow=block;blockSpacing=1;whiteSpace=wrap;fontSize=16.7;spacing=9;rounded=1;absoluteArcSize=1;arcSize=9;strokeWidth=NaN;lucidId=C~fCS3e-xRTn;" parent="1" vertex="1">
          <mxGeometry x="3025" y="350.25" width="157" height="107" as="geometry" />
        </mxCell>
        <mxCell id="hI_gfdGzy6ph1winZSWf-209" style="edgeStyle=orthogonalEdgeStyle;rounded=0;orthogonalLoop=1;jettySize=auto;html=1;exitX=1;exitY=0;exitDx=0;exitDy=0;" parent="1" source="hI_gfdGzy6ph1winZSWf-210" target="hI_gfdGzy6ph1winZSWf-208" edge="1">
          <mxGeometry relative="1" as="geometry">
            <Array as="points">
              <mxPoint x="3035" y="490.25" />
            </Array>
          </mxGeometry>
        </mxCell>
        <mxCell id="hI_gfdGzy6ph1winZSWf-210" value="project_id" style="html=1;overflow=block;blockSpacing=1;whiteSpace=wrap;ellipse;fontSize=16.7;spacing=3.8;rounded=1;absoluteArcSize=1;arcSize=9;strokeWidth=NaN;lucidId=C~fCTZYgPVfo;" parent="1" vertex="1">
          <mxGeometry x="2860" y="476.25" width="115" height="92.5" as="geometry" />
        </mxCell>
        <mxCell id="hI_gfdGzy6ph1winZSWf-211" value="title" style="html=1;overflow=block;blockSpacing=1;whiteSpace=wrap;ellipse;fontSize=16.7;spacing=3.8;rounded=1;absoluteArcSize=1;arcSize=9;strokeWidth=NaN;lucidId=C~fCTZYgPVfo;" parent="1" vertex="1">
          <mxGeometry x="2965" y="539.25" width="115" height="92.5" as="geometry" />
        </mxCell>
        <mxCell id="hI_gfdGzy6ph1winZSWf-212" style="edgeStyle=orthogonalEdgeStyle;rounded=0;orthogonalLoop=1;jettySize=auto;html=1;exitX=0.5;exitY=0;exitDx=0;exitDy=0;entryX=0.307;entryY=0.962;entryDx=0;entryDy=0;entryPerimeter=0;" parent="1" source="hI_gfdGzy6ph1winZSWf-213" target="hI_gfdGzy6ph1winZSWf-208" edge="1">
          <mxGeometry relative="1" as="geometry">
            <mxPoint x="3075" y="469.25" as="targetPoint" />
            <Array as="points">
              <mxPoint x="3095" y="536.75" />
              <mxPoint x="3095" y="496.75" />
              <mxPoint x="3073" y="496.75" />
            </Array>
          </mxGeometry>
        </mxCell>
        <mxCell id="hI_gfdGzy6ph1winZSWf-213" value="start_date" style="html=1;overflow=block;blockSpacing=1;whiteSpace=wrap;ellipse;fontSize=16.7;spacing=3.8;rounded=1;absoluteArcSize=1;arcSize=9;strokeWidth=NaN;lucidId=C~fCTZYgPVfo;" parent="1" vertex="1">
          <mxGeometry x="3095" y="536.75" width="115" height="92.5" as="geometry" />
        </mxCell>
        <mxCell id="hI_gfdGzy6ph1winZSWf-214" value="end_date" style="html=1;overflow=block;blockSpacing=1;whiteSpace=wrap;ellipse;fontSize=16.7;spacing=3.8;rounded=1;absoluteArcSize=1;arcSize=9;strokeWidth=NaN;lucidId=C~fCTZYgPVfo;" parent="1" vertex="1">
          <mxGeometry x="3210" y="504.25" width="115" height="92.5" as="geometry" />
        </mxCell>
        <mxCell id="hI_gfdGzy6ph1winZSWf-215" style="edgeStyle=orthogonalEdgeStyle;rounded=0;orthogonalLoop=1;jettySize=auto;html=1;exitX=0.5;exitY=0;exitDx=0;exitDy=0;entryX=0.186;entryY=1.008;entryDx=0;entryDy=0;entryPerimeter=0;" parent="1" source="hI_gfdGzy6ph1winZSWf-211" target="hI_gfdGzy6ph1winZSWf-208" edge="1">
          <mxGeometry relative="1" as="geometry" />
        </mxCell>
        <mxCell id="hI_gfdGzy6ph1winZSWf-216" style="edgeStyle=orthogonalEdgeStyle;rounded=0;orthogonalLoop=1;jettySize=auto;html=1;exitX=0;exitY=0;exitDx=0;exitDy=0;" parent="1" source="hI_gfdGzy6ph1winZSWf-214" target="hI_gfdGzy6ph1winZSWf-208" edge="1">
          <mxGeometry relative="1" as="geometry">
            <mxPoint x="3145" y="446.75" as="targetPoint" />
            <Array as="points">
              <mxPoint x="3115" y="517.75" />
            </Array>
          </mxGeometry>
        </mxCell>
        <mxCell id="hI_gfdGzy6ph1winZSWf-217" value="budget" style="html=1;overflow=block;blockSpacing=1;whiteSpace=wrap;ellipse;fontSize=16.7;spacing=3.8;rounded=1;absoluteArcSize=1;arcSize=9;strokeWidth=NaN;lucidId=C~fCTZYgPVfo;" parent="1" vertex="1">
          <mxGeometry x="3245" y="394.25" width="115" height="92.5" as="geometry" />
        </mxCell>
        <mxCell id="hI_gfdGzy6ph1winZSWf-218" style="edgeStyle=orthogonalEdgeStyle;rounded=0;orthogonalLoop=1;jettySize=auto;html=1;entryX=0.698;entryY=0.995;entryDx=0;entryDy=0;entryPerimeter=0;" parent="1" source="hI_gfdGzy6ph1winZSWf-217" target="hI_gfdGzy6ph1winZSWf-208" edge="1">
          <mxGeometry relative="1" as="geometry" />
        </mxCell>
        <mxCell id="hI_gfdGzy6ph1winZSWf-245" style="edgeStyle=orthogonalEdgeStyle;rounded=0;orthogonalLoop=1;jettySize=auto;html=1;exitX=0.5;exitY=0;exitDx=0;exitDy=0;endArrow=none;endFill=0;" parent="1" source="hI_gfdGzy6ph1winZSWf-318" target="hI_gfdGzy6ph1winZSWf-139" edge="1">
          <mxGeometry relative="1" as="geometry">
            <Array as="points">
              <mxPoint x="2790" y="180" />
            </Array>
          </mxGeometry>
        </mxCell>
        <mxCell id="hI_gfdGzy6ph1winZSWf-235" value="Class" style="html=1;overflow=block;blockSpacing=1;whiteSpace=wrap;fontSize=16.7;spacing=9;strokeColor=#unset;rounded=1;absoluteArcSize=1;arcSize=9;fillColor=#unset;strokeWidth=NaN;lucidId=C~fCS3e-xRTn;fontColor=#FFFFFF;" parent="1" vertex="1">
          <mxGeometry x="3665" y="408.5" width="157" height="107" as="geometry" />
        </mxCell>
        <mxCell id="hI_gfdGzy6ph1winZSWf-237" value="class_id" style="html=1;overflow=block;blockSpacing=1;whiteSpace=wrap;ellipse;fontSize=16.7;spacing=3.8;strokeColor=#unset;rounded=1;absoluteArcSize=1;arcSize=9;fillColor=#unset;strokeWidth=NaN;lucidId=C~fCTZYgPVfo;fontColor=#FFFFFF;" parent="1" vertex="1">
          <mxGeometry x="3970" y="472.25" width="115" height="92.5" as="geometry" />
        </mxCell>
        <mxCell id="hI_gfdGzy6ph1winZSWf-238" value="schedule" style="html=1;overflow=block;blockSpacing=1;whiteSpace=wrap;ellipse;fontSize=16.7;spacing=3.8;strokeColor=#unset;rounded=1;absoluteArcSize=1;arcSize=9;fillColor=#unset;strokeWidth=NaN;lucidId=C~fCTZYgPVfo;fontColor=#FFFFFF;" parent="1" vertex="1">
          <mxGeometry x="3990" y="340" width="115" height="92.5" as="geometry" />
        </mxCell>
        <mxCell id="hI_gfdGzy6ph1winZSWf-247" style="edgeStyle=orthogonalEdgeStyle;rounded=0;orthogonalLoop=1;jettySize=auto;html=1;exitX=0;exitY=1;exitDx=0;exitDy=0;entryX=1;entryY=0.5;entryDx=0;entryDy=0;" parent="1" source="hI_gfdGzy6ph1winZSWf-240" target="hI_gfdGzy6ph1winZSWf-235" edge="1">
          <mxGeometry relative="1" as="geometry" />
        </mxCell>
        <mxCell id="hI_gfdGzy6ph1winZSWf-240" value="max_capacity" style="html=1;overflow=block;blockSpacing=1;whiteSpace=wrap;ellipse;fontSize=16.7;spacing=3.8;strokeColor=#unset;rounded=1;absoluteArcSize=1;arcSize=9;fillColor=#unset;strokeWidth=NaN;lucidId=C~fCTZYgPVfo;fontColor=#FFFFFF;" parent="1" vertex="1">
          <mxGeometry x="3920" y="220" width="115" height="92.5" as="geometry" />
        </mxCell>
        <mxCell id="hI_gfdGzy6ph1winZSWf-248" style="edgeStyle=orthogonalEdgeStyle;rounded=0;orthogonalLoop=1;jettySize=auto;html=1;exitX=0;exitY=0.5;exitDx=0;exitDy=0;entryX=0.981;entryY=0.704;entryDx=0;entryDy=0;entryPerimeter=0;" parent="1" source="hI_gfdGzy6ph1winZSWf-238" target="hI_gfdGzy6ph1winZSWf-235" edge="1">
          <mxGeometry relative="1" as="geometry" />
        </mxCell>
        <mxCell id="hI_gfdGzy6ph1winZSWf-249" style="edgeStyle=orthogonalEdgeStyle;rounded=0;orthogonalLoop=1;jettySize=auto;html=1;exitX=0;exitY=0.5;exitDx=0;exitDy=0;entryX=0.965;entryY=0.842;entryDx=0;entryDy=0;entryPerimeter=0;" parent="1" source="hI_gfdGzy6ph1winZSWf-237" target="hI_gfdGzy6ph1winZSWf-235" edge="1">
          <mxGeometry relative="1" as="geometry" />
        </mxCell>
        <mxCell id="hI_gfdGzy6ph1winZSWf-261" style="edgeStyle=orthogonalEdgeStyle;rounded=0;orthogonalLoop=1;jettySize=auto;html=1;exitX=0.5;exitY=0;exitDx=0;exitDy=0;entryX=0.25;entryY=1;entryDx=0;entryDy=0;" parent="1" source="hI_gfdGzy6ph1winZSWf-314" target="hI_gfdGzy6ph1winZSWf-235" edge="1">
          <mxGeometry relative="1" as="geometry" />
        </mxCell>
        <mxCell id="hI_gfdGzy6ph1winZSWf-250" value="Assignment" style="html=1;overflow=block;blockSpacing=1;whiteSpace=wrap;fontSize=16.7;spacing=9;strokeColor=#unset;rounded=1;absoluteArcSize=1;arcSize=9;fillColor=#unset;strokeWidth=NaN;lucidId=C~fCS3e-xRTn;fontColor=#FFFFFF;" parent="1" vertex="1">
          <mxGeometry x="3600" y="819" width="157" height="107" as="geometry" />
        </mxCell>
        <mxCell id="hI_gfdGzy6ph1winZSWf-256" style="edgeStyle=orthogonalEdgeStyle;rounded=0;orthogonalLoop=1;jettySize=auto;html=1;exitX=1;exitY=0.5;exitDx=0;exitDy=0;" parent="1" source="hI_gfdGzy6ph1winZSWf-251" target="hI_gfdGzy6ph1winZSWf-250" edge="1">
          <mxGeometry relative="1" as="geometry" />
        </mxCell>
        <mxCell id="hI_gfdGzy6ph1winZSWf-251" value="assignment_id" style="html=1;overflow=block;blockSpacing=1;whiteSpace=wrap;ellipse;fontSize=16.7;spacing=3.8;strokeColor=#unset;rounded=1;absoluteArcSize=1;arcSize=9;fillColor=#unset;strokeWidth=NaN;lucidId=C~fCTZYgPVfo;fontColor=#FFFFFF;" parent="1" vertex="1">
          <mxGeometry x="3450" y="813.5" width="115" height="92.5" as="geometry" />
        </mxCell>
        <mxCell id="hI_gfdGzy6ph1winZSWf-257" style="edgeStyle=orthogonalEdgeStyle;rounded=0;orthogonalLoop=1;jettySize=auto;html=1;exitX=1;exitY=0;exitDx=0;exitDy=0;entryX=0;entryY=1;entryDx=0;entryDy=0;" parent="1" source="hI_gfdGzy6ph1winZSWf-252" target="hI_gfdGzy6ph1winZSWf-250" edge="1">
          <mxGeometry relative="1" as="geometry" />
        </mxCell>
        <mxCell id="hI_gfdGzy6ph1winZSWf-252" value="title" style="html=1;overflow=block;blockSpacing=1;whiteSpace=wrap;ellipse;fontSize=16.7;spacing=3.8;strokeColor=#unset;rounded=1;absoluteArcSize=1;arcSize=9;fillColor=#unset;strokeWidth=NaN;lucidId=C~fCTZYgPVfo;fontColor=#FFFFFF;" parent="1" vertex="1">
          <mxGeometry x="3450" y="929.75" width="115" height="92.5" as="geometry" />
        </mxCell>
        <mxCell id="hI_gfdGzy6ph1winZSWf-260" style="edgeStyle=orthogonalEdgeStyle;rounded=0;orthogonalLoop=1;jettySize=auto;html=1;exitX=0;exitY=0.5;exitDx=0;exitDy=0;entryX=1;entryY=0.5;entryDx=0;entryDy=0;" parent="1" source="hI_gfdGzy6ph1winZSWf-253" target="hI_gfdGzy6ph1winZSWf-250" edge="1">
          <mxGeometry relative="1" as="geometry" />
        </mxCell>
        <mxCell id="hI_gfdGzy6ph1winZSWf-253" value="description" style="html=1;overflow=block;blockSpacing=1;whiteSpace=wrap;ellipse;fontSize=16.7;spacing=3.8;strokeColor=#unset;rounded=1;absoluteArcSize=1;arcSize=9;fillColor=#unset;strokeWidth=NaN;lucidId=C~fCTZYgPVfo;fontColor=#FFFFFF;" parent="1" vertex="1">
          <mxGeometry x="3800" y="822.75" width="115" height="92.5" as="geometry" />
        </mxCell>
        <mxCell id="hI_gfdGzy6ph1winZSWf-259" style="edgeStyle=orthogonalEdgeStyle;rounded=0;orthogonalLoop=1;jettySize=auto;html=1;exitX=0;exitY=0;exitDx=0;exitDy=0;entryX=1;entryY=0.75;entryDx=0;entryDy=0;" parent="1" source="hI_gfdGzy6ph1winZSWf-254" target="hI_gfdGzy6ph1winZSWf-250" edge="1">
          <mxGeometry relative="1" as="geometry" />
        </mxCell>
        <mxCell id="hI_gfdGzy6ph1winZSWf-254" value="due_date" style="html=1;overflow=block;blockSpacing=1;whiteSpace=wrap;ellipse;fontSize=16.7;spacing=3.8;strokeColor=#unset;rounded=1;absoluteArcSize=1;arcSize=9;fillColor=#unset;strokeWidth=NaN;lucidId=C~fCTZYgPVfo;fontColor=#FFFFFF;" parent="1" vertex="1">
          <mxGeometry x="3800" y="943" width="115" height="92.5" as="geometry" />
        </mxCell>
        <mxCell id="hI_gfdGzy6ph1winZSWf-255" value="max_score" style="html=1;overflow=block;blockSpacing=1;whiteSpace=wrap;ellipse;fontSize=16.7;spacing=3.8;strokeColor=#unset;rounded=1;absoluteArcSize=1;arcSize=9;fillColor=#unset;strokeWidth=NaN;lucidId=C~fCTZYgPVfo;fontColor=#FFFFFF;" parent="1" vertex="1">
          <mxGeometry x="3530" y="1016" width="115" height="92.5" as="geometry" />
        </mxCell>
        <mxCell id="hI_gfdGzy6ph1winZSWf-258" style="edgeStyle=orthogonalEdgeStyle;rounded=0;orthogonalLoop=1;jettySize=auto;html=1;exitX=0.5;exitY=0;exitDx=0;exitDy=0;entryX=0.136;entryY=0.978;entryDx=0;entryDy=0;entryPerimeter=0;" parent="1" source="hI_gfdGzy6ph1winZSWf-255" target="hI_gfdGzy6ph1winZSWf-250" edge="1">
          <mxGeometry relative="1" as="geometry" />
        </mxCell>
        <mxCell id="hI_gfdGzy6ph1winZSWf-263" value="Grade" style="html=1;overflow=block;blockSpacing=1;whiteSpace=wrap;fontSize=16.7;spacing=9;strokeColor=#unset;rounded=1;absoluteArcSize=1;arcSize=9;fillColor=#unset;strokeWidth=NaN;lucidId=C~fCS3e-xRTn;fontColor=#FFFFFF;" parent="1" vertex="1">
          <mxGeometry x="3550" y="1241.5" width="157" height="107" as="geometry" />
        </mxCell>
        <mxCell id="hI_gfdGzy6ph1winZSWf-271" style="edgeStyle=orthogonalEdgeStyle;rounded=0;orthogonalLoop=1;jettySize=auto;html=1;exitX=1;exitY=0.5;exitDx=0;exitDy=0;" parent="1" source="hI_gfdGzy6ph1winZSWf-264" target="hI_gfdGzy6ph1winZSWf-263" edge="1">
          <mxGeometry relative="1" as="geometry" />
        </mxCell>
        <mxCell id="hI_gfdGzy6ph1winZSWf-264" value="grade_id" style="html=1;overflow=block;blockSpacing=1;whiteSpace=wrap;ellipse;fontSize=16.7;spacing=3.8;strokeColor=#unset;rounded=1;absoluteArcSize=1;arcSize=9;fillColor=#unset;strokeWidth=NaN;lucidId=C~fCTZYgPVfo;fontColor=#FFFFFF;" parent="1" vertex="1">
          <mxGeometry x="3380" y="1300" width="115" height="92.5" as="geometry" />
        </mxCell>
        <mxCell id="hI_gfdGzy6ph1winZSWf-270" style="edgeStyle=orthogonalEdgeStyle;rounded=0;orthogonalLoop=1;jettySize=auto;html=1;exitX=1;exitY=0;exitDx=0;exitDy=0;entryX=0.5;entryY=1;entryDx=0;entryDy=0;" parent="1" source="hI_gfdGzy6ph1winZSWf-265" target="hI_gfdGzy6ph1winZSWf-263" edge="1">
          <mxGeometry relative="1" as="geometry" />
        </mxCell>
        <mxCell id="hI_gfdGzy6ph1winZSWf-265" value="score" style="html=1;overflow=block;blockSpacing=1;whiteSpace=wrap;ellipse;fontSize=16.7;spacing=3.8;strokeColor=#unset;rounded=1;absoluteArcSize=1;arcSize=9;fillColor=#unset;strokeWidth=NaN;lucidId=C~fCTZYgPVfo;fontColor=#FFFFFF;" parent="1" vertex="1">
          <mxGeometry x="3470" y="1392.5" width="115" height="92.5" as="geometry" />
        </mxCell>
        <mxCell id="hI_gfdGzy6ph1winZSWf-266" value="feedback" style="html=1;overflow=block;blockSpacing=1;whiteSpace=wrap;ellipse;fontSize=16.7;spacing=3.8;strokeColor=#unset;rounded=1;absoluteArcSize=1;arcSize=9;fillColor=#unset;strokeWidth=NaN;lucidId=C~fCTZYgPVfo;fontColor=#FFFFFF;" parent="1" vertex="1">
          <mxGeometry x="3600" y="1440" width="115" height="92.5" as="geometry" />
        </mxCell>
        <mxCell id="hI_gfdGzy6ph1winZSWf-267" value="grading_date" style="html=1;overflow=block;blockSpacing=1;whiteSpace=wrap;ellipse;fontSize=16.7;spacing=3.8;strokeColor=#unset;rounded=1;absoluteArcSize=1;arcSize=9;fillColor=#unset;strokeWidth=NaN;lucidId=C~fCTZYgPVfo;fontColor=#FFFFFF;" parent="1" vertex="1">
          <mxGeometry x="3750" y="1411.5" width="115" height="92.5" as="geometry" />
        </mxCell>
        <mxCell id="hI_gfdGzy6ph1winZSWf-268" style="edgeStyle=orthogonalEdgeStyle;rounded=0;orthogonalLoop=1;jettySize=auto;html=1;exitX=0.5;exitY=0;exitDx=0;exitDy=0;entryX=0.871;entryY=0.98;entryDx=0;entryDy=0;entryPerimeter=0;" parent="1" source="hI_gfdGzy6ph1winZSWf-267" target="hI_gfdGzy6ph1winZSWf-263" edge="1">
          <mxGeometry relative="1" as="geometry" />
        </mxCell>
        <mxCell id="hI_gfdGzy6ph1winZSWf-269" style="edgeStyle=orthogonalEdgeStyle;rounded=0;orthogonalLoop=1;jettySize=auto;html=1;exitX=0.5;exitY=0;exitDx=0;exitDy=0;entryX=0.686;entryY=1.014;entryDx=0;entryDy=0;entryPerimeter=0;" parent="1" source="hI_gfdGzy6ph1winZSWf-266" target="hI_gfdGzy6ph1winZSWf-263" edge="1">
          <mxGeometry relative="1" as="geometry" />
        </mxCell>
        <mxCell id="hI_gfdGzy6ph1winZSWf-277" value="" style="edgeStyle=orthogonalEdgeStyle;rounded=0;orthogonalLoop=1;jettySize=auto;html=1;exitX=0.5;exitY=0;exitDx=0;exitDy=0;entryX=0.323;entryY=0.896;entryDx=0;entryDy=0;entryPerimeter=0;" parent="1" source="hI_gfdGzy6ph1winZSWf-263" target="hI_gfdGzy6ph1winZSWf-279" edge="1">
          <mxGeometry relative="1" as="geometry">
            <mxPoint x="3629" y="1242" as="sourcePoint" />
            <mxPoint x="3707" y="925" as="targetPoint" />
            <Array as="points">
              <mxPoint x="3629" y="1180" />
              <mxPoint x="3640" y="1180" />
              <mxPoint x="3640" y="1157" />
            </Array>
          </mxGeometry>
        </mxCell>
        <mxCell id="hI_gfdGzy6ph1winZSWf-279" value="has" style="rhombus;whiteSpace=wrap;html=1;" parent="1" vertex="1">
          <mxGeometry x="3650" y="1085" width="80" height="80" as="geometry" />
        </mxCell>
        <mxCell id="hI_gfdGzy6ph1winZSWf-280" style="edgeStyle=orthogonalEdgeStyle;rounded=0;orthogonalLoop=1;jettySize=auto;html=1;exitX=0.5;exitY=0;exitDx=0;exitDy=0;entryX=0.586;entryY=0.953;entryDx=0;entryDy=0;entryPerimeter=0;" parent="1" source="hI_gfdGzy6ph1winZSWf-279" target="hI_gfdGzy6ph1winZSWf-250" edge="1">
          <mxGeometry relative="1" as="geometry" />
        </mxCell>
        <mxCell id="hI_gfdGzy6ph1winZSWf-294" style="edgeStyle=orthogonalEdgeStyle;rounded=0;orthogonalLoop=1;jettySize=auto;html=1;exitX=0.5;exitY=0;exitDx=0;exitDy=0;" parent="1" source="hI_gfdGzy6ph1winZSWf-281" target="hI_gfdGzy6ph1winZSWf-293" edge="1">
          <mxGeometry relative="1" as="geometry" />
        </mxCell>
        <mxCell id="hI_gfdGzy6ph1winZSWf-281" value="Building" style="html=1;overflow=block;blockSpacing=1;whiteSpace=wrap;fontSize=16.7;spacing=9;rounded=1;absoluteArcSize=1;arcSize=9;strokeWidth=NaN;lucidId=C~fCS3e-xRTn;" parent="1" vertex="1">
          <mxGeometry x="2958" y="1385.25" width="157" height="107" as="geometry" />
        </mxCell>
        <mxCell id="hI_gfdGzy6ph1winZSWf-282" value="Building" style="html=1;overflow=block;blockSpacing=1;whiteSpace=wrap;ellipse;fontSize=16.7;spacing=3.8;rounded=1;absoluteArcSize=1;arcSize=9;strokeWidth=NaN;lucidId=C~fCTZYgPVfo;" parent="1" vertex="1">
          <mxGeometry x="2795" y="1580" width="115" height="92.5" as="geometry" />
        </mxCell>
        <mxCell id="hI_gfdGzy6ph1winZSWf-283" value="name" style="html=1;overflow=block;blockSpacing=1;whiteSpace=wrap;ellipse;fontSize=16.7;spacing=3.8;rounded=1;absoluteArcSize=1;arcSize=9;strokeWidth=NaN;lucidId=C~fCTZYgPVfo;" parent="1" vertex="1">
          <mxGeometry x="2900" y="1672.5" width="115" height="92.5" as="geometry" />
        </mxCell>
        <mxCell id="hI_gfdGzy6ph1winZSWf-297" style="edgeStyle=orthogonalEdgeStyle;rounded=0;orthogonalLoop=1;jettySize=auto;html=1;exitX=0.5;exitY=0;exitDx=0;exitDy=0;entryX=0.795;entryY=1.075;entryDx=0;entryDy=0;entryPerimeter=0;" parent="1" source="hI_gfdGzy6ph1winZSWf-284" target="hI_gfdGzy6ph1winZSWf-281" edge="1">
          <mxGeometry relative="1" as="geometry">
            <mxPoint x="3060" y="1500" as="targetPoint" />
          </mxGeometry>
        </mxCell>
        <mxCell id="hI_gfdGzy6ph1winZSWf-284" value="address" style="html=1;overflow=block;blockSpacing=1;whiteSpace=wrap;ellipse;fontSize=16.7;spacing=3.8;rounded=1;absoluteArcSize=1;arcSize=9;strokeWidth=NaN;lucidId=C~fCTZYgPVfo;" parent="1" vertex="1">
          <mxGeometry x="3220" y="1700" width="115" height="92.5" as="geometry" />
        </mxCell>
        <mxCell id="hI_gfdGzy6ph1winZSWf-285" value="floors" style="html=1;overflow=block;blockSpacing=1;whiteSpace=wrap;ellipse;fontSize=16.7;spacing=3.8;rounded=1;absoluteArcSize=1;arcSize=9;strokeWidth=NaN;lucidId=C~fCTZYgPVfo;" parent="1" vertex="1">
          <mxGeometry x="3310" y="1558" width="115" height="92.5" as="geometry" />
        </mxCell>
        <mxCell id="hI_gfdGzy6ph1winZSWf-288" style="edgeStyle=orthogonalEdgeStyle;rounded=0;orthogonalLoop=1;jettySize=auto;html=1;exitX=1;exitY=0.5;exitDx=0;exitDy=0;entryX=0.071;entryY=0.993;entryDx=0;entryDy=0;entryPerimeter=0;" parent="1" source="hI_gfdGzy6ph1winZSWf-286" target="hI_gfdGzy6ph1winZSWf-281" edge="1">
          <mxGeometry relative="1" as="geometry" />
        </mxCell>
        <mxCell id="hI_gfdGzy6ph1winZSWf-286" value="capacity" style="html=1;overflow=block;blockSpacing=1;whiteSpace=wrap;ellipse;fontSize=16.7;spacing=3.8;rounded=1;absoluteArcSize=1;arcSize=9;strokeWidth=NaN;lucidId=C~fCTZYgPVfo;" parent="1" vertex="1">
          <mxGeometry x="2750" y="1460" width="115" height="92.5" as="geometry" />
        </mxCell>
        <mxCell id="hI_gfdGzy6ph1winZSWf-289" style="edgeStyle=orthogonalEdgeStyle;rounded=0;orthogonalLoop=1;jettySize=auto;html=1;exitX=1;exitY=0;exitDx=0;exitDy=0;entryX=0.149;entryY=0.97;entryDx=0;entryDy=0;entryPerimeter=0;" parent="1" source="hI_gfdGzy6ph1winZSWf-282" target="hI_gfdGzy6ph1winZSWf-281" edge="1">
          <mxGeometry relative="1" as="geometry" />
        </mxCell>
        <mxCell id="hI_gfdGzy6ph1winZSWf-290" style="edgeStyle=orthogonalEdgeStyle;rounded=0;orthogonalLoop=1;jettySize=auto;html=1;exitX=0.5;exitY=0;exitDx=0;exitDy=0;entryX=0.415;entryY=1.004;entryDx=0;entryDy=0;entryPerimeter=0;" parent="1" source="hI_gfdGzy6ph1winZSWf-283" target="hI_gfdGzy6ph1winZSWf-281" edge="1">
          <mxGeometry relative="1" as="geometry">
            <Array as="points">
              <mxPoint x="3010" y="1672" />
              <mxPoint x="3010" y="1582" />
              <mxPoint x="3023" y="1582" />
            </Array>
          </mxGeometry>
        </mxCell>
        <mxCell id="hI_gfdGzy6ph1winZSWf-292" style="edgeStyle=orthogonalEdgeStyle;rounded=0;orthogonalLoop=1;jettySize=auto;html=1;exitX=0.5;exitY=0;exitDx=0;exitDy=0;entryX=0.883;entryY=0.961;entryDx=0;entryDy=0;entryPerimeter=0;" parent="1" source="hI_gfdGzy6ph1winZSWf-285" target="hI_gfdGzy6ph1winZSWf-281" edge="1">
          <mxGeometry relative="1" as="geometry">
            <mxPoint x="3072" y="1493" as="targetPoint" />
          </mxGeometry>
        </mxCell>
        <mxCell id="hI_gfdGzy6ph1winZSWf-293" value="Located_in" style="rhombus;whiteSpace=wrap;html=1;" parent="1" vertex="1">
          <mxGeometry x="3000" y="930" width="80" height="80" as="geometry" />
        </mxCell>
        <mxCell id="hI_gfdGzy6ph1winZSWf-295" style="edgeStyle=orthogonalEdgeStyle;rounded=0;orthogonalLoop=1;jettySize=auto;html=1;entryX=0.643;entryY=0.991;entryDx=0;entryDy=0;entryPerimeter=0;endArrow=none;endFill=0;" parent="1" source="hI_gfdGzy6ph1winZSWf-293" target="hI_gfdGzy6ph1winZSWf-127" edge="1">
          <mxGeometry relative="1" as="geometry">
            <Array as="points">
              <mxPoint x="3040" y="770" />
              <mxPoint x="2226" y="770" />
            </Array>
          </mxGeometry>
        </mxCell>
        <mxCell id="hI_gfdGzy6ph1winZSWf-311" style="edgeStyle=orthogonalEdgeStyle;rounded=0;orthogonalLoop=1;jettySize=auto;html=1;exitX=0.5;exitY=0;exitDx=0;exitDy=0;entryX=0.5;entryY=1;entryDx=0;entryDy=0;" parent="1" source="hI_gfdGzy6ph1winZSWf-298" target="hI_gfdGzy6ph1winZSWf-309" edge="1">
          <mxGeometry relative="1" as="geometry" />
        </mxCell>
        <mxCell id="hI_gfdGzy6ph1winZSWf-298" value="Room" style="html=1;overflow=block;blockSpacing=1;whiteSpace=wrap;fontSize=16.7;spacing=9;rounded=1;absoluteArcSize=1;arcSize=9;strokeWidth=NaN;lucidId=C~fCS3e-xRTn;" parent="1" vertex="1">
          <mxGeometry x="3018" y="1980" width="157" height="107" as="geometry" />
        </mxCell>
        <mxCell id="hI_gfdGzy6ph1winZSWf-307" style="edgeStyle=orthogonalEdgeStyle;rounded=0;orthogonalLoop=1;jettySize=auto;html=1;exitX=0.5;exitY=0;exitDx=0;exitDy=0;" parent="1" source="hI_gfdGzy6ph1winZSWf-299" target="hI_gfdGzy6ph1winZSWf-298" edge="1">
          <mxGeometry relative="1" as="geometry" />
        </mxCell>
        <mxCell id="hI_gfdGzy6ph1winZSWf-299" value="capacity" style="html=1;overflow=block;blockSpacing=1;whiteSpace=wrap;ellipse;fontSize=16.7;spacing=3.8;rounded=1;absoluteArcSize=1;arcSize=9;strokeWidth=NaN;lucidId=C~fCTZYgPVfo;" parent="1" vertex="1">
          <mxGeometry x="3105" y="2220" width="115" height="92.5" as="geometry" />
        </mxCell>
        <mxCell id="hI_gfdGzy6ph1winZSWf-300" value="room_n&lt;span style=&quot;color: rgba(0, 0, 0, 0); font-family: monospace; font-size: 0px; text-align: start; text-wrap: nowrap;&quot;&gt;%3CmxGraphModel%3E%3Croot%3E%3CmxCell%20id%3D%220%22%2F%3E%3CmxCell%20id%3D%221%22%20parent%3D%220%22%2F%3E%3CmxCell%20id%3D%222%22%20value%3D%22room_id%22%20style%3D%22html%3D1%3Boverflow%3Dblock%3BblockSpacing%3D1%3BwhiteSpace%3Dwrap%3Bellipse%3BfontSize%3D16.7%3Bspacing%3D3.8%3BstrokeColor%3D%23unset%3Brounded%3D1%3BabsoluteArcSize%3D1%3BarcSize%3D9%3BfillColor%3D%23unset%3BstrokeWidth%3DNaN%3BlucidId%3DC~fCTZYgPVfo%3BfontColor%3D%23FFFFFF%3B%22%20vertex%3D%221%22%20parent%3D%221%22%3E%3CmxGeometry%20x%3D%222860%22%20y%3D%222130%22%20width%3D%22115%22%20height%3D%2292.5%22%20as%3D%22geometry%22%2F%3E%3C%2FmxCell%3E%3C%2Froot%3E%3C%2FmxGraphModel%3E&lt;/span&gt;umber" style="html=1;overflow=block;blockSpacing=1;whiteSpace=wrap;ellipse;fontSize=16.7;spacing=3.8;rounded=1;absoluteArcSize=1;arcSize=9;strokeWidth=NaN;lucidId=C~fCTZYgPVfo;" parent="1" vertex="1">
          <mxGeometry x="2975" y="2220" width="115" height="92.5" as="geometry" />
        </mxCell>
        <mxCell id="hI_gfdGzy6ph1winZSWf-301" value="room_id" style="html=1;overflow=block;blockSpacing=1;whiteSpace=wrap;ellipse;fontSize=16.7;spacing=3.8;rounded=1;absoluteArcSize=1;arcSize=9;strokeWidth=NaN;lucidId=C~fCTZYgPVfo;" parent="1" vertex="1">
          <mxGeometry x="2880" y="2150" width="115" height="92.5" as="geometry" />
        </mxCell>
        <mxCell id="hI_gfdGzy6ph1winZSWf-302" value="type" style="html=1;overflow=block;blockSpacing=1;whiteSpace=wrap;ellipse;fontSize=16.7;spacing=3.8;rounded=1;absoluteArcSize=1;arcSize=9;strokeWidth=NaN;lucidId=C~fCTZYgPVfo;" parent="1" vertex="1">
          <mxGeometry x="3225" y="2200" width="115" height="92.5" as="geometry" />
        </mxCell>
        <mxCell id="hI_gfdGzy6ph1winZSWf-304" style="edgeStyle=orthogonalEdgeStyle;rounded=0;orthogonalLoop=1;jettySize=auto;html=1;exitX=0.5;exitY=0;exitDx=0;exitDy=0;entryX=0.25;entryY=1;entryDx=0;entryDy=0;" parent="1" source="hI_gfdGzy6ph1winZSWf-303" target="hI_gfdGzy6ph1winZSWf-298" edge="1">
          <mxGeometry relative="1" as="geometry" />
        </mxCell>
        <mxCell id="hI_gfdGzy6ph1winZSWf-303" value="equipment" style="html=1;overflow=block;blockSpacing=1;whiteSpace=wrap;ellipse;fontSize=16.7;spacing=3.8;rounded=1;absoluteArcSize=1;arcSize=9;strokeWidth=NaN;lucidId=C~fCTZYgPVfo;" parent="1" vertex="1">
          <mxGeometry x="2750" y="2080" width="115" height="92.5" as="geometry" />
        </mxCell>
        <mxCell id="hI_gfdGzy6ph1winZSWf-305" style="edgeStyle=orthogonalEdgeStyle;rounded=0;orthogonalLoop=1;jettySize=auto;html=1;exitX=0.5;exitY=0;exitDx=0;exitDy=0;entryX=0.385;entryY=1.002;entryDx=0;entryDy=0;entryPerimeter=0;" parent="1" source="hI_gfdGzy6ph1winZSWf-301" target="hI_gfdGzy6ph1winZSWf-298" edge="1">
          <mxGeometry relative="1" as="geometry" />
        </mxCell>
        <mxCell id="hI_gfdGzy6ph1winZSWf-306" style="edgeStyle=orthogonalEdgeStyle;rounded=0;orthogonalLoop=1;jettySize=auto;html=1;exitX=0.5;exitY=0;exitDx=0;exitDy=0;entryX=0.468;entryY=0.962;entryDx=0;entryDy=0;entryPerimeter=0;" parent="1" source="hI_gfdGzy6ph1winZSWf-300" target="hI_gfdGzy6ph1winZSWf-298" edge="1">
          <mxGeometry relative="1" as="geometry" />
        </mxCell>
        <mxCell id="hI_gfdGzy6ph1winZSWf-308" style="edgeStyle=orthogonalEdgeStyle;rounded=0;orthogonalLoop=1;jettySize=auto;html=1;exitX=0.5;exitY=0;exitDx=0;exitDy=0;entryX=0.556;entryY=0.994;entryDx=0;entryDy=0;entryPerimeter=0;" parent="1" source="hI_gfdGzy6ph1winZSWf-302" target="hI_gfdGzy6ph1winZSWf-298" edge="1">
          <mxGeometry relative="1" as="geometry" />
        </mxCell>
        <mxCell id="hI_gfdGzy6ph1winZSWf-312" style="edgeStyle=orthogonalEdgeStyle;rounded=0;orthogonalLoop=1;jettySize=auto;html=1;exitX=0.5;exitY=0;exitDx=0;exitDy=0;entryX=0.5;entryY=1;entryDx=0;entryDy=0;" parent="1" source="hI_gfdGzy6ph1winZSWf-309" target="hI_gfdGzy6ph1winZSWf-281" edge="1">
          <mxGeometry relative="1" as="geometry">
            <Array as="points">
              <mxPoint x="3060" y="1700" />
              <mxPoint x="3060" y="1596" />
              <mxPoint x="3036" y="1596" />
            </Array>
          </mxGeometry>
        </mxCell>
        <mxCell id="hI_gfdGzy6ph1winZSWf-309" value="has" style="rhombus;whiteSpace=wrap;html=1;" parent="1" vertex="1">
          <mxGeometry x="3056" y="1700" width="80" height="80" as="geometry" />
        </mxCell>
        <mxCell id="hI_gfdGzy6ph1winZSWf-313" value="" style="edgeStyle=orthogonalEdgeStyle;rounded=0;orthogonalLoop=1;jettySize=auto;html=1;exitX=0.5;exitY=0;exitDx=0;exitDy=0;entryX=0.25;entryY=1;entryDx=0;entryDy=0;" parent="1" source="hI_gfdGzy6ph1winZSWf-250" target="hI_gfdGzy6ph1winZSWf-314" edge="1">
          <mxGeometry relative="1" as="geometry">
            <mxPoint x="3679" y="819" as="sourcePoint" />
            <mxPoint x="3704" y="516" as="targetPoint" />
          </mxGeometry>
        </mxCell>
        <mxCell id="hI_gfdGzy6ph1winZSWf-314" value="has" style="rhombus;whiteSpace=wrap;html=1;" parent="1" vertex="1">
          <mxGeometry x="3637" y="634" width="80" height="80" as="geometry" />
        </mxCell>
        <mxCell id="hI_gfdGzy6ph1winZSWf-317" value="" style="edgeStyle=orthogonalEdgeStyle;rounded=0;orthogonalLoop=1;jettySize=auto;html=1;exitX=0.5;exitY=0;exitDx=0;exitDy=0;" parent="1" source="hI_gfdGzy6ph1winZSWf-235" target="hI_gfdGzy6ph1winZSWf-318" edge="1">
          <mxGeometry relative="1" as="geometry">
            <mxPoint x="3744" y="409" as="sourcePoint" />
            <mxPoint x="2790" y="118" as="targetPoint" />
            <Array as="points">
              <mxPoint x="3744" y="360" />
              <mxPoint x="3240" y="360" />
              <mxPoint x="3240" y="180" />
            </Array>
          </mxGeometry>
        </mxCell>
        <mxCell id="hI_gfdGzy6ph1winZSWf-318" value="teaches" style="rhombus;whiteSpace=wrap;html=1;" parent="1" vertex="1">
          <mxGeometry x="3055" y="138" width="80" height="80" as="geometry" />
        </mxCell>
        <mxCell id="hI_gfdGzy6ph1winZSWf-321" value="" style="edgeStyle=orthogonalEdgeStyle;rounded=0;orthogonalLoop=1;jettySize=auto;html=1;exitX=0.5;exitY=0;exitDx=0;exitDy=0;entryX=0.25;entryY=1;entryDx=0;entryDy=0;endArrow=none;endFill=0;" parent="1" source="hI_gfdGzy6ph1winZSWf-208" target="hI_gfdGzy6ph1winZSWf-322" edge="1">
          <mxGeometry relative="1" as="geometry">
            <mxPoint x="2729" y="118" as="targetPoint" />
            <mxPoint x="2874" y="354" as="sourcePoint" />
          </mxGeometry>
        </mxCell>
        <mxCell id="hI_gfdGzy6ph1winZSWf-322" value="leades" style="rhombus;whiteSpace=wrap;html=1;" parent="1" vertex="1">
          <mxGeometry x="2840.75" y="264.25" width="80" height="80" as="geometry" />
        </mxCell>
        <mxCell id="hI_gfdGzy6ph1winZSWf-323" value="" style="edgeStyle=orthogonalEdgeStyle;rounded=0;orthogonalLoop=1;jettySize=auto;html=1;exitX=0.5;exitY=0;exitDx=0;exitDy=0;endArrow=none;endFill=0;" parent="1" source="hI_gfdGzy6ph1winZSWf-127" target="hI_gfdGzy6ph1winZSWf-324" edge="1">
          <mxGeometry relative="1" as="geometry">
            <mxPoint x="2204" y="465" as="sourcePoint" />
            <mxPoint x="2710" y="118" as="targetPoint" />
            <Array as="points">
              <mxPoint x="2204" y="292" />
            </Array>
          </mxGeometry>
        </mxCell>
        <mxCell id="hI_gfdGzy6ph1winZSWf-324" value="belongs_to" style="rhombus;whiteSpace=wrap;html=1;" parent="1" vertex="1">
          <mxGeometry x="2340" y="250" width="80" height="80" as="geometry" />
        </mxCell>
        <mxCell id="hI_gfdGzy6ph1winZSWf-342" style="edgeStyle=orthogonalEdgeStyle;rounded=0;orthogonalLoop=1;jettySize=auto;html=1;exitX=0.5;exitY=0;exitDx=0;exitDy=0;entryX=1;entryY=0.5;entryDx=0;entryDy=0;" parent="1" source="hI_gfdGzy6ph1winZSWf-331" target="hI_gfdGzy6ph1winZSWf-341" edge="1">
          <mxGeometry relative="1" as="geometry" />
        </mxCell>
        <mxCell id="hI_gfdGzy6ph1winZSWf-331" value="Semester" style="html=1;overflow=block;blockSpacing=1;whiteSpace=wrap;fontSize=16.7;spacing=9;strokeColor=#unset;rounded=1;absoluteArcSize=1;arcSize=9;fillColor=#unset;strokeWidth=NaN;lucidId=C~fCS3e-xRTn;fontColor=#FFFFFF;" parent="1" vertex="1">
          <mxGeometry x="4085" y="774" width="157" height="107" as="geometry" />
        </mxCell>
        <mxCell id="hI_gfdGzy6ph1winZSWf-332" value="semester_id" style="html=1;overflow=block;blockSpacing=1;whiteSpace=wrap;ellipse;fontSize=16.7;spacing=3.8;strokeColor=#unset;rounded=1;absoluteArcSize=1;arcSize=9;fillColor=#unset;strokeWidth=NaN;lucidId=C~fCTZYgPVfo;fontColor=#FFFFFF;" parent="1" vertex="1">
          <mxGeometry x="3970" y="880" width="115" height="92.5" as="geometry" />
        </mxCell>
        <mxCell id="hI_gfdGzy6ph1winZSWf-338" style="edgeStyle=orthogonalEdgeStyle;rounded=0;orthogonalLoop=1;jettySize=auto;html=1;exitX=0.5;exitY=0;exitDx=0;exitDy=0;entryX=0.25;entryY=1;entryDx=0;entryDy=0;" parent="1" source="hI_gfdGzy6ph1winZSWf-333" target="hI_gfdGzy6ph1winZSWf-331" edge="1">
          <mxGeometry relative="1" as="geometry" />
        </mxCell>
        <mxCell id="hI_gfdGzy6ph1winZSWf-333" value="name" style="html=1;overflow=block;blockSpacing=1;whiteSpace=wrap;ellipse;fontSize=16.7;spacing=3.8;strokeColor=#unset;rounded=1;absoluteArcSize=1;arcSize=9;fillColor=#unset;strokeWidth=NaN;lucidId=C~fCTZYgPVfo;fontColor=#FFFFFF;" parent="1" vertex="1">
          <mxGeometry x="4060" y="976.75" width="115" height="92.5" as="geometry" />
        </mxCell>
        <mxCell id="hI_gfdGzy6ph1winZSWf-334" value="start_date" style="html=1;overflow=block;blockSpacing=1;whiteSpace=wrap;ellipse;fontSize=16.7;spacing=3.8;strokeColor=#unset;rounded=1;absoluteArcSize=1;arcSize=9;fillColor=#unset;strokeWidth=NaN;lucidId=C~fCTZYgPVfo;fontColor=#FFFFFF;" parent="1" vertex="1">
          <mxGeometry x="4190" y="1008" width="115" height="92.5" as="geometry" />
        </mxCell>
        <mxCell id="hI_gfdGzy6ph1winZSWf-340" style="edgeStyle=orthogonalEdgeStyle;rounded=0;orthogonalLoop=1;jettySize=auto;html=1;exitX=0.5;exitY=0;exitDx=0;exitDy=0;entryX=0.5;entryY=1;entryDx=0;entryDy=0;" parent="1" source="hI_gfdGzy6ph1winZSWf-335" target="hI_gfdGzy6ph1winZSWf-331" edge="1">
          <mxGeometry relative="1" as="geometry" />
        </mxCell>
        <mxCell id="hI_gfdGzy6ph1winZSWf-335" value="end_date" style="html=1;overflow=block;blockSpacing=1;whiteSpace=wrap;ellipse;fontSize=16.7;spacing=3.8;strokeColor=#unset;rounded=1;absoluteArcSize=1;arcSize=9;fillColor=#unset;strokeWidth=NaN;lucidId=C~fCTZYgPVfo;fontColor=#FFFFFF;" parent="1" vertex="1">
          <mxGeometry x="4320" y="984.5" width="115" height="92.5" as="geometry" />
        </mxCell>
        <mxCell id="hI_gfdGzy6ph1winZSWf-337" style="edgeStyle=orthogonalEdgeStyle;rounded=0;orthogonalLoop=1;jettySize=auto;html=1;exitX=1;exitY=0.5;exitDx=0;exitDy=0;entryX=0.123;entryY=1.012;entryDx=0;entryDy=0;entryPerimeter=0;" parent="1" source="hI_gfdGzy6ph1winZSWf-332" target="hI_gfdGzy6ph1winZSWf-331" edge="1">
          <mxGeometry relative="1" as="geometry" />
        </mxCell>
        <mxCell id="hI_gfdGzy6ph1winZSWf-339" style="edgeStyle=orthogonalEdgeStyle;rounded=0;orthogonalLoop=1;jettySize=auto;html=1;exitX=0.5;exitY=0;exitDx=0;exitDy=0;entryX=0.359;entryY=1.004;entryDx=0;entryDy=0;entryPerimeter=0;" parent="1" source="hI_gfdGzy6ph1winZSWf-334" target="hI_gfdGzy6ph1winZSWf-331" edge="1">
          <mxGeometry relative="1" as="geometry" />
        </mxCell>
        <mxCell id="hI_gfdGzy6ph1winZSWf-341" value="has" style="rhombus;whiteSpace=wrap;html=1;" parent="1" vertex="1">
          <mxGeometry x="3930" y="640" width="80" height="80" as="geometry" />
        </mxCell>
        <mxCell id="hI_gfdGzy6ph1winZSWf-344" style="edgeStyle=orthogonalEdgeStyle;rounded=0;orthogonalLoop=1;jettySize=auto;html=1;exitX=0;exitY=0.5;exitDx=0;exitDy=0;entryX=0.905;entryY=0.975;entryDx=0;entryDy=0;entryPerimeter=0;" parent="1" source="hI_gfdGzy6ph1winZSWf-341" target="hI_gfdGzy6ph1winZSWf-235" edge="1">
          <mxGeometry relative="1" as="geometry" />
        </mxCell>
        <mxCell id="hI_gfdGzy6ph1winZSWf-349" style="edgeStyle=orthogonalEdgeStyle;rounded=0;orthogonalLoop=1;jettySize=auto;html=1;exitX=1;exitY=0.5;exitDx=0;exitDy=0;endArrow=none;endFill=0;" parent="1" source="hI_gfdGzy6ph1winZSWf-346" target="hI_gfdGzy6ph1winZSWf-139" edge="1">
          <mxGeometry relative="1" as="geometry">
            <mxPoint x="2700" y="120" as="targetPoint" />
            <Array as="points">
              <mxPoint x="750" y="240" />
              <mxPoint x="2750" y="240" />
            </Array>
          </mxGeometry>
        </mxCell>
        <mxCell id="hI_gfdGzy6ph1winZSWf-346" value="provides" style="rhombus;whiteSpace=wrap;html=1;" parent="1" vertex="1">
          <mxGeometry x="670" y="254.75" width="80" height="80" as="geometry" />
        </mxCell>
        <mxCell id="hI_gfdGzy6ph1winZSWf-354" value="pays" style="rhombus;whiteSpace=wrap;html=1;" parent="1" vertex="1">
          <mxGeometry x="524" y="724.5" width="80" height="80" as="geometry" />
        </mxCell>
        <mxCell id="hI_gfdGzy6ph1winZSWf-364" value="" style="edgeStyle=orthogonalEdgeStyle;rounded=0;orthogonalLoop=1;jettySize=auto;html=1;entryX=1;entryY=0.5;entryDx=0;entryDy=0;endArrow=none;endFill=0;" parent="1" source="hI_gfdGzy6ph1winZSWf-97" target="hI_gfdGzy6ph1winZSWf-365" edge="1">
          <mxGeometry relative="1" as="geometry">
            <mxPoint x="660" y="820.75" as="sourcePoint" />
            <mxPoint x="-371" y="449.75" as="targetPoint" />
            <Array as="points">
              <mxPoint x="860" y="607" />
            </Array>
          </mxGeometry>
        </mxCell>
        <mxCell id="hI_gfdGzy6ph1winZSWf-365" value="has" style="rhombus;whiteSpace=wrap;html=1;" parent="1" vertex="1">
          <mxGeometry x="-35" y="566.75" width="80" height="80" as="geometry" />
        </mxCell>
        <mxCell id="hI_gfdGzy6ph1winZSWf-367" value="Advise" style="rhombus;whiteSpace=wrap;html=1;" parent="1" vertex="1">
          <mxGeometry x="-70" y="687" width="90" height="95.75" as="geometry" />
        </mxCell>
        <mxCell id="hI_gfdGzy6ph1winZSWf-379" style="edgeStyle=orthogonalEdgeStyle;rounded=0;orthogonalLoop=1;jettySize=auto;html=1;exitX=0.04;exitY=0.448;exitDx=0;exitDy=0;entryX=0.481;entryY=0.948;entryDx=0;entryDy=0;entryPerimeter=0;exitPerimeter=0;endArrow=none;endFill=0;" parent="1" source="hI_gfdGzy6ph1winZSWf-376" target="hI_gfdGzy6ph1winZSWf-1" edge="1">
          <mxGeometry relative="1" as="geometry">
            <mxPoint x="-380" y="636.75" as="targetPoint" />
            <Array as="points">
              <mxPoint x="-350" y="787.75" />
              <mxPoint x="-350" y="566.75" />
              <mxPoint x="-412" y="566.75" />
            </Array>
          </mxGeometry>
        </mxCell>
        <mxCell id="hI_gfdGzy6ph1winZSWf-376" value="works_as" style="rhombus;whiteSpace=wrap;html=1;" parent="1" vertex="1">
          <mxGeometry x="-325.75" y="751.75" width="80" height="80" as="geometry" />
        </mxCell>
        <mxCell id="hI_gfdGzy6ph1winZSWf-381" value="joins" style="rhombus;whiteSpace=wrap;html=1;" parent="1" vertex="1">
          <mxGeometry x="-465" y="631.75" width="80" height="80" as="geometry" />
        </mxCell>
        <mxCell id="hI_gfdGzy6ph1winZSWf-384" style="edgeStyle=orthogonalEdgeStyle;rounded=0;orthogonalLoop=1;jettySize=auto;html=1;exitX=0.5;exitY=0;exitDx=0;exitDy=0;entryX=0.392;entryY=0.957;entryDx=0;entryDy=0;entryPerimeter=0;endArrow=none;endFill=0;" parent="1" source="hI_gfdGzy6ph1winZSWf-381" target="hI_gfdGzy6ph1winZSWf-1" edge="1">
          <mxGeometry relative="1" as="geometry" />
        </mxCell>
        <mxCell id="hI_gfdGzy6ph1winZSWf-385" value="" style="html=1;jettySize=18;whiteSpace=wrap;fontSize=13;strokeColor=#3a414a;strokeOpacity=100;strokeWidth=0.8;rounded=1;arcSize=12;edgeStyle=orthogonalEdgeStyle;startArrow=none;endArrow=block;endFill=1;exitX=0.5;exitY=-0.008;exitPerimeter=0;entryX=0.5;entryY=1;lucidId=d.fCBODTHqKB;fontColor=#FFFFFF;entryDx=0;entryDy=0;" parent="1" source="hI_gfdGzy6ph1winZSWf-28" target="hI_gfdGzy6ph1winZSWf-386" edge="1">
          <mxGeometry width="100" height="100" relative="1" as="geometry">
            <Array as="points" />
            <mxPoint x="-818" y="728.75" as="sourcePoint" />
            <mxPoint x="-438" y="452.75" as="targetPoint" />
          </mxGeometry>
        </mxCell>
        <mxCell id="hI_gfdGzy6ph1winZSWf-386" value="borrows" style="rhombus;whiteSpace=wrap;html=1;" parent="1" vertex="1">
          <mxGeometry x="-672" y="572.75" width="80" height="85" as="geometry" />
        </mxCell>
        <mxCell id="hI_gfdGzy6ph1winZSWf-389" style="edgeStyle=orthogonalEdgeStyle;rounded=0;orthogonalLoop=1;jettySize=auto;html=1;exitX=1;exitY=0.5;exitDx=0;exitDy=0;entryX=0.262;entryY=0.938;entryDx=0;entryDy=0;entryPerimeter=0;endArrow=none;endFill=0;" parent="1" source="hI_gfdGzy6ph1winZSWf-386" target="hI_gfdGzy6ph1winZSWf-1" edge="1">
          <mxGeometry relative="1" as="geometry" />
        </mxCell>
        <mxCell id="SHsydusi7aNXR8TOH_lr-1" value="Student_Union" style="rhombus;whiteSpace=wrap;html=1;" parent="1" vertex="1">
          <mxGeometry x="-200.75" y="344.25" width="179" height="80" as="geometry" />
        </mxCell>
        <mxCell id="SHsydusi7aNXR8TOH_lr-3" style="edgeStyle=orthogonalEdgeStyle;rounded=0;orthogonalLoop=1;jettySize=auto;html=1;exitX=1;exitY=0.5;exitDx=0;exitDy=0;endArrow=none;endFill=0;" parent="1" source="SHsydusi7aNXR8TOH_lr-1" target="hI_gfdGzy6ph1winZSWf-1" edge="1">
          <mxGeometry relative="1" as="geometry">
            <Array as="points">
              <mxPoint x="-27" y="439" />
            </Array>
          </mxGeometry>
        </mxCell>
        <mxCell id="GFw0hA3Wh1s_jzPgZYi7-5" value="Phone #" style="ellipse;shape=doubleEllipse;margin=3;whiteSpace=wrap;html=1;align=center;" parent="1" vertex="1">
          <mxGeometry x="-245.75" y="179.75" width="100" height="40" as="geometry" />
        </mxCell>
        <mxCell id="GFw0hA3Wh1s_jzPgZYi7-6" value="Birthdate" style="ellipse;whiteSpace=wrap;html=1;align=center;dashed=1;" parent="1" vertex="1">
          <mxGeometry x="-626" y="304.25" width="100" height="40" as="geometry" />
        </mxCell>
        <mxCell id="GFw0hA3Wh1s_jzPgZYi7-8" value="NID" style="ellipse;whiteSpace=wrap;html=1;align=center;" parent="1" vertex="1">
          <mxGeometry x="-700" y="358.25" width="100" height="40" as="geometry" />
        </mxCell>
        <mxCell id="GFw0hA3Wh1s_jzPgZYi7-10" value="&lt;span style=&quot;font-size: 17px;&quot;&gt;&lt;font color=&quot;#0d0d0d&quot;&gt;Student_id&lt;/font&gt;&lt;/span&gt;" style="ellipse;whiteSpace=wrap;html=1;align=center;fontStyle=4;" parent="1" vertex="1">
          <mxGeometry x="-614" y="178" width="100" height="40" as="geometry" />
        </mxCell>
        <mxCell id="GFw0hA3Wh1s_jzPgZYi7-12" value="Name" style="ellipse;whiteSpace=wrap;html=1;align=center;" parent="1" vertex="1">
          <mxGeometry x="-429" y="202.5" width="75" height="30" as="geometry" />
        </mxCell>
        <mxCell id="GFw0hA3Wh1s_jzPgZYi7-13" value="FName" style="ellipse;whiteSpace=wrap;html=1;align=center;" parent="1" vertex="1">
          <mxGeometry x="-469" y="140" width="50" height="20" as="geometry" />
        </mxCell>
        <mxCell id="GFw0hA3Wh1s_jzPgZYi7-14" value="LName" style="ellipse;whiteSpace=wrap;html=1;align=center;" parent="1" vertex="1">
          <mxGeometry x="-390" y="138" width="50" height="20" as="geometry" />
        </mxCell>
        <mxCell id="GFw0hA3Wh1s_jzPgZYi7-17" value="" style="endArrow=none;html=1;rounded=0;entryX=0.5;entryY=1;entryDx=0;entryDy=0;exitX=0.5;exitY=0;exitDx=0;exitDy=0;" parent="1" source="GFw0hA3Wh1s_jzPgZYi7-12" target="GFw0hA3Wh1s_jzPgZYi7-13" edge="1">
          <mxGeometry width="50" height="50" relative="1" as="geometry">
            <mxPoint x="-450" y="230" as="sourcePoint" />
            <mxPoint x="-400" y="180" as="targetPoint" />
          </mxGeometry>
        </mxCell>
        <mxCell id="GFw0hA3Wh1s_jzPgZYi7-18" value="" style="endArrow=none;html=1;rounded=0;entryX=0.5;entryY=1;entryDx=0;entryDy=0;exitX=0.5;exitY=0;exitDx=0;exitDy=0;" parent="1" source="GFw0hA3Wh1s_jzPgZYi7-12" target="GFw0hA3Wh1s_jzPgZYi7-14" edge="1">
          <mxGeometry width="50" height="50" relative="1" as="geometry">
            <mxPoint x="-356.5" y="199.75" as="sourcePoint" />
            <mxPoint x="-409.5" y="156.75" as="targetPoint" />
          </mxGeometry>
        </mxCell>
        <mxCell id="GFw0hA3Wh1s_jzPgZYi7-19" value="Email" style="ellipse;whiteSpace=wrap;html=1;align=center;" parent="1" vertex="1">
          <mxGeometry x="-357" y="220" width="100" height="40" as="geometry" />
        </mxCell>
        <mxCell id="GFw0hA3Wh1s_jzPgZYi7-20" value="Loan_id" style="ellipse;whiteSpace=wrap;html=1;align=center;fontStyle=4;" parent="1" vertex="1">
          <mxGeometry x="-1040" y="875.25" width="100" height="40" as="geometry" />
        </mxCell>
        <mxCell id="GFw0hA3Wh1s_jzPgZYi7-21" value="AdvisorID" style="ellipse;whiteSpace=wrap;html=1;align=center;fontStyle=4;" parent="1" vertex="1">
          <mxGeometry x="-75" y="937.75" width="100" height="40" as="geometry" />
        </mxCell>
        <mxCell id="GFw0hA3Wh1s_jzPgZYi7-33" style="edgeStyle=orthogonalEdgeStyle;rounded=0;orthogonalLoop=1;jettySize=auto;html=1;exitX=0.397;exitY=0.981;exitDx=0;exitDy=0;endArrow=none;endFill=0;exitPerimeter=0;" parent="1" source="GFw0hA3Wh1s_jzPgZYi7-22" edge="1">
          <mxGeometry relative="1" as="geometry">
            <mxPoint x="290.00000000000045" y="1100" as="sourcePoint" />
            <mxPoint x="260.00000000000045" y="1183" as="targetPoint" />
            <Array as="points">
              <mxPoint x="340" y="1140" />
              <mxPoint x="270" y="1140" />
              <mxPoint x="270" y="1183" />
            </Array>
          </mxGeometry>
        </mxCell>
        <mxCell id="GFw0hA3Wh1s_jzPgZYi7-22" value="Scholarship" style="ellipse;whiteSpace=wrap;html=1;align=center;" parent="1" vertex="1">
          <mxGeometry x="300" y="1077" width="100" height="40" as="geometry" />
        </mxCell>
        <mxCell id="GFw0hA3Wh1s_jzPgZYi7-34" style="edgeStyle=orthogonalEdgeStyle;rounded=0;orthogonalLoop=1;jettySize=auto;html=1;exitX=0.5;exitY=0;exitDx=0;exitDy=0;endArrow=none;endFill=0;" parent="1" source="GFw0hA3Wh1s_jzPgZYi7-31" target="GFw0hA3Wh1s_jzPgZYi7-22" edge="1">
          <mxGeometry relative="1" as="geometry">
            <mxPoint x="360" y="1120" as="targetPoint" />
          </mxGeometry>
        </mxCell>
        <mxCell id="GFw0hA3Wh1s_jzPgZYi7-31" value="Percentage" style="ellipse;whiteSpace=wrap;html=1;align=center;" parent="1" vertex="1">
          <mxGeometry x="350" y="1183.75" width="100" height="40" as="geometry" />
        </mxCell>
        <mxCell id="GFw0hA3Wh1s_jzPgZYi7-32" value="Type" style="ellipse;whiteSpace=wrap;html=1;align=center;" parent="1" vertex="1">
          <mxGeometry x="220" y="1180" width="100" height="40" as="geometry" />
        </mxCell>
        <mxCell id="W91S4-fIKX1Bsy6_rblm-11" value="address" style="ellipse;shape=doubleEllipse;margin=3;whiteSpace=wrap;html=1;align=center;" vertex="1" parent="1">
          <mxGeometry x="-270" y="304.25" width="100" height="40" as="geometry" />
        </mxCell>
        <mxCell id="W91S4-fIKX1Bsy6_rblm-12" value="city" style="ellipse;whiteSpace=wrap;html=1;align=center;" vertex="1" parent="1">
          <mxGeometry x="-170" y="233" width="70" height="40" as="geometry" />
        </mxCell>
        <mxCell id="W91S4-fIKX1Bsy6_rblm-14" value="street" style="ellipse;whiteSpace=wrap;html=1;align=center;" vertex="1" parent="1">
          <mxGeometry x="-100" y="264.25" width="70" height="40" as="geometry" />
        </mxCell>
        <mxCell id="W91S4-fIKX1Bsy6_rblm-18" value="" style="endArrow=none;html=1;rounded=0;exitX=1;exitY=0;exitDx=0;exitDy=0;entryX=0.5;entryY=1;entryDx=0;entryDy=0;" edge="1" parent="1" source="W91S4-fIKX1Bsy6_rblm-11" target="W91S4-fIKX1Bsy6_rblm-12">
          <mxGeometry width="50" height="50" relative="1" as="geometry">
            <mxPoint x="-170" y="338" as="sourcePoint" />
            <mxPoint x="-120" y="288" as="targetPoint" />
          </mxGeometry>
        </mxCell>
        <mxCell id="W91S4-fIKX1Bsy6_rblm-20" value="" style="endArrow=none;html=1;rounded=0;exitX=1;exitY=0;exitDx=0;exitDy=0;" edge="1" parent="1" source="W91S4-fIKX1Bsy6_rblm-11">
          <mxGeometry width="50" height="50" relative="1" as="geometry">
            <mxPoint x="-150" y="338" as="sourcePoint" />
            <mxPoint x="-100" y="288" as="targetPoint" />
          </mxGeometry>
        </mxCell>
        <mxCell id="W91S4-fIKX1Bsy6_rblm-82" style="edgeStyle=orthogonalEdgeStyle;rounded=0;orthogonalLoop=1;jettySize=auto;html=1;exitX=0.5;exitY=0;exitDx=0;exitDy=0;endArrow=none;endFill=0;" edge="1" parent="1" target="hI_gfdGzy6ph1winZSWf-1">
          <mxGeometry relative="1" as="geometry">
            <mxPoint x="-412.72" y="490.75000000000006" as="targetPoint" />
            <mxPoint x="-870" y="549.5399999999997" as="sourcePoint" />
            <Array as="points">
              <mxPoint x="-864" y="549" />
              <mxPoint x="-864" y="560" />
              <mxPoint x="-457" y="560" />
            </Array>
          </mxGeometry>
        </mxCell>
        <mxCell id="W91S4-fIKX1Bsy6_rblm-30" value="semester" style="html=1;overflow=block;blockSpacing=1;whiteSpace=wrap;ellipse;fontSize=16.7;spacing=3.8;rounded=1;absoluteArcSize=1;arcSize=9;strokeWidth=NaN;lucidId=N6fCvcaXLI2G;" vertex="1" parent="1">
          <mxGeometry x="-1142" y="767.75" width="130" height="74.25" as="geometry" />
        </mxCell>
        <mxCell id="W91S4-fIKX1Bsy6_rblm-31" value="GPA" style="html=1;overflow=block;blockSpacing=1;whiteSpace=wrap;ellipse;fontSize=16.7;spacing=3.8;rounded=1;absoluteArcSize=1;arcSize=9;strokeWidth=NaN;lucidId=N6fCny7tdnae;" vertex="1" parent="1">
          <mxGeometry x="-992" y="767.75" width="100" height="44.25" as="geometry" />
        </mxCell>
        <mxCell id="W91S4-fIKX1Bsy6_rblm-32" value="" style="html=1;jettySize=18;whiteSpace=wrap;fontSize=13;strokeColor=#3a414a;strokeOpacity=100;strokeWidth=0.8;rounded=1;arcSize=12;edgeStyle=orthogonalEdgeStyle;startArrow=none;endArrow=none;endFill=0;exitX=0.5;exitY=-0.017;exitPerimeter=0;entryX=0.798;entryY=0.997;entryPerimeter=0;lucidId=P7fCyJMPB_uS;fontColor=#FFFFFF;entryDx=0;entryDy=0;" edge="1" parent="1" source="W91S4-fIKX1Bsy6_rblm-31" target="W91S4-fIKX1Bsy6_rblm-86">
          <mxGeometry width="100" height="100" relative="1" as="geometry">
            <Array as="points" />
            <mxPoint x="-979.7600000000001" y="649.4699999999998" as="targetPoint" />
          </mxGeometry>
        </mxCell>
        <mxCell id="W91S4-fIKX1Bsy6_rblm-33" value="" style="html=1;jettySize=18;whiteSpace=wrap;fontSize=13;strokeColor=#3a414a;strokeOpacity=100;strokeWidth=0.8;rounded=1;arcSize=12;edgeStyle=orthogonalEdgeStyle;startArrow=none;endArrow=none;endFill=0;exitX=0.5;exitY=-0.007;exitPerimeter=0;entryX=0.473;entryY=0.927;entryPerimeter=0;lucidId=67fCMBq-46Bf;fontColor=#FFFFFF;entryDx=0;entryDy=0;" edge="1" parent="1" source="W91S4-fIKX1Bsy6_rblm-30" target="W91S4-fIKX1Bsy6_rblm-86">
          <mxGeometry width="100" height="100" relative="1" as="geometry">
            <Array as="points">
              <mxPoint x="-1078" y="767" />
              <mxPoint x="-1078" y="722" />
              <mxPoint x="-1023" y="722" />
            </Array>
            <mxPoint x="-1022" y="649.4699999999998" as="targetPoint" />
          </mxGeometry>
        </mxCell>
        <mxCell id="W91S4-fIKX1Bsy6_rblm-200" style="edgeStyle=orthogonalEdgeStyle;rounded=0;orthogonalLoop=1;jettySize=auto;html=1;exitX=1.048;exitY=0.51;exitDx=0;exitDy=0;entryX=0.5;entryY=1;entryDx=0;entryDy=0;endArrow=none;endFill=0;exitPerimeter=0;" edge="1" parent="1" source="W91S4-fIKX1Bsy6_rblm-202" target="hI_gfdGzy6ph1winZSWf-139">
          <mxGeometry relative="1" as="geometry">
            <Array as="points">
              <mxPoint x="2580" y="344" />
              <mxPoint x="2580" y="310" />
              <mxPoint x="2768" y="310" />
            </Array>
          </mxGeometry>
        </mxCell>
        <mxCell id="W91S4-fIKX1Bsy6_rblm-35" value="Professor" style="html=1;overflow=block;blockSpacing=1;whiteSpace=wrap;fontSize=16.7;spacing=9;rounded=1;absoluteArcSize=1;arcSize=9;strokeWidth=NaN;lucidId=N6fCpPrhbAXP;" vertex="1" parent="1">
          <mxGeometry x="2490" y="412.75" width="120" height="90" as="geometry" />
        </mxCell>
        <mxCell id="W91S4-fIKX1Bsy6_rblm-37" value="email" style="html=1;overflow=block;blockSpacing=1;whiteSpace=wrap;ellipse;fontSize=16.7;spacing=3.8;rounded=1;absoluteArcSize=1;arcSize=9;strokeWidth=NaN;lucidId=N6fCvcaXLI2G;" vertex="1" parent="1">
          <mxGeometry x="2430" y="621.75" width="130" height="74.25" as="geometry" />
        </mxCell>
        <mxCell id="W91S4-fIKX1Bsy6_rblm-72" style="edgeStyle=orthogonalEdgeStyle;rounded=0;orthogonalLoop=1;jettySize=auto;html=1;" edge="1" parent="1" source="W91S4-fIKX1Bsy6_rblm-38" target="W91S4-fIKX1Bsy6_rblm-68">
          <mxGeometry relative="1" as="geometry" />
        </mxCell>
        <mxCell id="W91S4-fIKX1Bsy6_rblm-73" style="edgeStyle=orthogonalEdgeStyle;rounded=0;orthogonalLoop=1;jettySize=auto;html=1;exitX=0.5;exitY=1;exitDx=0;exitDy=0;" edge="1" parent="1" source="W91S4-fIKX1Bsy6_rblm-38" target="W91S4-fIKX1Bsy6_rblm-69">
          <mxGeometry relative="1" as="geometry" />
        </mxCell>
        <mxCell id="W91S4-fIKX1Bsy6_rblm-38" value="Name" style="html=1;overflow=block;blockSpacing=1;whiteSpace=wrap;ellipse;fontSize=16.7;spacing=3.8;rounded=1;absoluteArcSize=1;arcSize=9;strokeWidth=NaN;lucidId=N6fCny7tdnae;" vertex="1" parent="1">
          <mxGeometry x="2580" y="621.75" width="100" height="51.75" as="geometry" />
        </mxCell>
        <mxCell id="W91S4-fIKX1Bsy6_rblm-39" value="" style="html=1;jettySize=18;whiteSpace=wrap;fontSize=13;strokeColor=#3a414a;strokeOpacity=100;strokeWidth=0.8;rounded=1;arcSize=12;edgeStyle=orthogonalEdgeStyle;startArrow=none;endArrow=none;endFill=0;exitX=0.5;exitY=-0.017;exitPerimeter=0;entryX=0.852;entryY=1.008;entryPerimeter=0;lucidId=P7fCyJMPB_uS;fontColor=#FFFFFF;" edge="1" parent="1" source="W91S4-fIKX1Bsy6_rblm-38" target="W91S4-fIKX1Bsy6_rblm-35">
          <mxGeometry width="100" height="100" relative="1" as="geometry">
            <Array as="points" />
          </mxGeometry>
        </mxCell>
        <mxCell id="W91S4-fIKX1Bsy6_rblm-40" value="" style="html=1;jettySize=18;whiteSpace=wrap;fontSize=13;strokeColor=#3a414a;strokeOpacity=100;strokeWidth=0.8;rounded=1;arcSize=12;edgeStyle=orthogonalEdgeStyle;startArrow=none;endArrow=none;endFill=0;exitX=0.5;exitY=-0.007;exitPerimeter=0;entryX=0.5;entryY=1.008;entryPerimeter=0;lucidId=67fCMBq-46Bf;fontColor=#FFFFFF;" edge="1" parent="1" source="W91S4-fIKX1Bsy6_rblm-37" target="W91S4-fIKX1Bsy6_rblm-35">
          <mxGeometry width="100" height="100" relative="1" as="geometry">
            <Array as="points">
              <mxPoint x="2494" y="576" />
              <mxPoint x="2550" y="576" />
            </Array>
          </mxGeometry>
        </mxCell>
        <mxCell id="W91S4-fIKX1Bsy6_rblm-41" value="" style="html=1;jettySize=18;whiteSpace=wrap;fontSize=13;strokeColor=#3a414a;strokeOpacity=100;strokeWidth=0.8;rounded=1;arcSize=12;edgeStyle=orthogonalEdgeStyle;startArrow=none;endArrow=none;endFill=0;exitX=0.5;exitY=0;entryX=0.327;entryY=1.008;entryPerimeter=0;lucidId=g8fCWNDtoVjZ;fontColor=#FFFFFF;exitDx=0;exitDy=0;" edge="1" parent="1" source="W91S4-fIKX1Bsy6_rblm-46" target="W91S4-fIKX1Bsy6_rblm-35">
          <mxGeometry width="100" height="100" relative="1" as="geometry">
            <Array as="points">
              <mxPoint x="2352" y="537.5" />
              <mxPoint x="2529" y="537.5" />
            </Array>
            <mxPoint x="2390.77" y="638.25" as="sourcePoint" />
          </mxGeometry>
        </mxCell>
        <mxCell id="W91S4-fIKX1Bsy6_rblm-46" value="&lt;font color=&quot;#0d0d0d&quot;&gt;&lt;span style=&quot;font-size: 17px;&quot;&gt;ProfessorID&lt;/span&gt;&lt;/font&gt;" style="ellipse;whiteSpace=wrap;html=1;align=center;fontStyle=4;" vertex="1" parent="1">
          <mxGeometry x="2258" y="611" width="152" height="77.5" as="geometry" />
        </mxCell>
        <mxCell id="W91S4-fIKX1Bsy6_rblm-50" value="NationalID" style="html=1;overflow=block;blockSpacing=1;whiteSpace=wrap;ellipse;fontSize=16.7;spacing=3.8;rounded=1;absoluteArcSize=1;arcSize=9;strokeWidth=NaN;lucidId=N6fCny7tdnae;" vertex="1" parent="1">
          <mxGeometry x="2714.75" y="627.6300000000001" width="117.25" height="55.87" as="geometry" />
        </mxCell>
        <mxCell id="W91S4-fIKX1Bsy6_rblm-52" value="Nationality&lt;div&gt;&lt;br&gt;&lt;/div&gt;" style="html=1;overflow=block;blockSpacing=1;whiteSpace=wrap;ellipse;fontSize=16.7;spacing=3.8;rounded=1;absoluteArcSize=1;arcSize=9;strokeWidth=NaN;lucidId=N6fCny7tdnae;" vertex="1" parent="1">
          <mxGeometry x="2688.75" y="521.75" width="132" height="81.75" as="geometry" />
        </mxCell>
        <mxCell id="W91S4-fIKX1Bsy6_rblm-53" value="" style="endArrow=none;html=1;rounded=0;entryX=1;entryY=1;entryDx=0;entryDy=0;exitX=0;exitY=0;exitDx=0;exitDy=0;" edge="1" parent="1" source="W91S4-fIKX1Bsy6_rblm-50" target="W91S4-fIKX1Bsy6_rblm-35">
          <mxGeometry width="50" height="50" relative="1" as="geometry">
            <mxPoint x="2522" y="763.5" as="sourcePoint" />
            <mxPoint x="2572" y="713.5" as="targetPoint" />
          </mxGeometry>
        </mxCell>
        <mxCell id="W91S4-fIKX1Bsy6_rblm-55" value="" style="endArrow=none;html=1;rounded=0;entryX=1;entryY=0.75;entryDx=0;entryDy=0;" edge="1" parent="1" source="W91S4-fIKX1Bsy6_rblm-52" target="W91S4-fIKX1Bsy6_rblm-35">
          <mxGeometry width="50" height="50" relative="1" as="geometry">
            <mxPoint x="2532" y="773.5" as="sourcePoint" />
            <mxPoint x="2582" y="723.5" as="targetPoint" />
          </mxGeometry>
        </mxCell>
        <mxCell id="W91S4-fIKX1Bsy6_rblm-139" style="edgeStyle=orthogonalEdgeStyle;rounded=0;orthogonalLoop=1;jettySize=auto;html=1;exitX=0.5;exitY=0;exitDx=0;exitDy=0;entryX=0.5;entryY=1;entryDx=0;entryDy=0;endArrow=none;endFill=0;" edge="1" parent="1" source="W91S4-fIKX1Bsy6_rblm-188" target="hI_gfdGzy6ph1winZSWf-127">
          <mxGeometry relative="1" as="geometry">
            <Array as="points">
              <mxPoint x="2204" y="840" />
            </Array>
          </mxGeometry>
        </mxCell>
        <mxCell id="W91S4-fIKX1Bsy6_rblm-56" value="Instructor" style="html=1;overflow=block;blockSpacing=1;whiteSpace=wrap;fontSize=16.7;spacing=9;rounded=1;absoluteArcSize=1;arcSize=9;strokeWidth=NaN;lucidId=N6fCpPrhbAXP;" vertex="1" parent="1">
          <mxGeometry x="2642" y="894.75" width="120" height="90" as="geometry" />
        </mxCell>
        <mxCell id="W91S4-fIKX1Bsy6_rblm-57" value="email" style="html=1;overflow=block;blockSpacing=1;whiteSpace=wrap;ellipse;fontSize=16.7;spacing=3.8;rounded=1;absoluteArcSize=1;arcSize=9;strokeWidth=NaN;lucidId=N6fCvcaXLI2G;" vertex="1" parent="1">
          <mxGeometry x="2582" y="1103.75" width="130" height="74.25" as="geometry" />
        </mxCell>
        <mxCell id="W91S4-fIKX1Bsy6_rblm-79" style="edgeStyle=orthogonalEdgeStyle;rounded=0;orthogonalLoop=1;jettySize=auto;html=1;exitX=0.5;exitY=1;exitDx=0;exitDy=0;entryX=0.5;entryY=0;entryDx=0;entryDy=0;" edge="1" parent="1" source="W91S4-fIKX1Bsy6_rblm-58" target="W91S4-fIKX1Bsy6_rblm-74">
          <mxGeometry relative="1" as="geometry" />
        </mxCell>
        <mxCell id="W91S4-fIKX1Bsy6_rblm-58" value="name" style="html=1;overflow=block;blockSpacing=1;whiteSpace=wrap;ellipse;fontSize=16.7;spacing=3.8;rounded=1;absoluteArcSize=1;arcSize=9;strokeWidth=NaN;lucidId=N6fCny7tdnae;" vertex="1" parent="1">
          <mxGeometry x="2732" y="1103.75" width="100" height="44.25" as="geometry" />
        </mxCell>
        <mxCell id="W91S4-fIKX1Bsy6_rblm-59" value="" style="html=1;jettySize=18;whiteSpace=wrap;fontSize=13;strokeColor=#3a414a;strokeOpacity=100;strokeWidth=0.8;rounded=1;arcSize=12;edgeStyle=orthogonalEdgeStyle;startArrow=none;endArrow=none;endFill=0;exitX=0.5;exitY=-0.017;exitPerimeter=0;entryX=0.852;entryY=1.008;entryPerimeter=0;lucidId=P7fCyJMPB_uS;fontColor=#FFFFFF;" edge="1" source="W91S4-fIKX1Bsy6_rblm-58" target="W91S4-fIKX1Bsy6_rblm-56" parent="1">
          <mxGeometry width="100" height="100" relative="1" as="geometry">
            <Array as="points" />
          </mxGeometry>
        </mxCell>
        <mxCell id="W91S4-fIKX1Bsy6_rblm-60" value="" style="html=1;jettySize=18;whiteSpace=wrap;fontSize=13;strokeColor=#3a414a;strokeOpacity=100;strokeWidth=0.8;rounded=1;arcSize=12;edgeStyle=orthogonalEdgeStyle;startArrow=none;endArrow=none;endFill=0;exitX=0.5;exitY=-0.007;exitPerimeter=0;entryX=0.5;entryY=1.008;entryPerimeter=0;lucidId=67fCMBq-46Bf;fontColor=#FFFFFF;" edge="1" source="W91S4-fIKX1Bsy6_rblm-57" target="W91S4-fIKX1Bsy6_rblm-56" parent="1">
          <mxGeometry width="100" height="100" relative="1" as="geometry">
            <Array as="points">
              <mxPoint x="2646" y="1058" />
              <mxPoint x="2702" y="1058" />
            </Array>
          </mxGeometry>
        </mxCell>
        <mxCell id="W91S4-fIKX1Bsy6_rblm-61" value="" style="html=1;jettySize=18;whiteSpace=wrap;fontSize=13;strokeColor=#3a414a;strokeOpacity=100;strokeWidth=0.8;rounded=1;arcSize=12;edgeStyle=orthogonalEdgeStyle;startArrow=none;endArrow=none;endFill=0;exitX=0.5;exitY=0;entryX=0.327;entryY=1.008;entryPerimeter=0;lucidId=g8fCWNDtoVjZ;fontColor=#FFFFFF;exitDx=0;exitDy=0;" edge="1" source="W91S4-fIKX1Bsy6_rblm-62" target="W91S4-fIKX1Bsy6_rblm-56" parent="1">
          <mxGeometry width="100" height="100" relative="1" as="geometry">
            <Array as="points">
              <mxPoint x="2504" y="1019.5" />
              <mxPoint x="2681" y="1019.5" />
            </Array>
            <mxPoint x="2542.77" y="1120.25" as="sourcePoint" />
          </mxGeometry>
        </mxCell>
        <mxCell id="W91S4-fIKX1Bsy6_rblm-62" value="&lt;font color=&quot;#0d0d0d&quot;&gt;&lt;span style=&quot;font-size: 17px;&quot;&gt;InstructorID&lt;/span&gt;&lt;/font&gt;" style="ellipse;whiteSpace=wrap;html=1;align=center;fontStyle=4;" vertex="1" parent="1">
          <mxGeometry x="2410" y="1093" width="152" height="77.5" as="geometry" />
        </mxCell>
        <mxCell id="W91S4-fIKX1Bsy6_rblm-63" value="NationalID" style="html=1;overflow=block;blockSpacing=1;whiteSpace=wrap;ellipse;fontSize=16.7;spacing=3.8;rounded=1;absoluteArcSize=1;arcSize=9;strokeWidth=NaN;lucidId=N6fCny7tdnae;" vertex="1" parent="1">
          <mxGeometry x="2866.75" y="1109.63" width="117.25" height="55.87" as="geometry" />
        </mxCell>
        <mxCell id="W91S4-fIKX1Bsy6_rblm-64" value="Nationality" style="html=1;overflow=block;blockSpacing=1;whiteSpace=wrap;ellipse;fontSize=16.7;spacing=3.8;rounded=1;absoluteArcSize=1;arcSize=9;strokeWidth=NaN;lucidId=N6fCny7tdnae;" vertex="1" parent="1">
          <mxGeometry x="2840.75" y="1003.75" width="132" height="81.75" as="geometry" />
        </mxCell>
        <mxCell id="W91S4-fIKX1Bsy6_rblm-65" value="" style="endArrow=none;html=1;rounded=0;entryX=1;entryY=1;entryDx=0;entryDy=0;exitX=0;exitY=0;exitDx=0;exitDy=0;" edge="1" source="W91S4-fIKX1Bsy6_rblm-63" target="W91S4-fIKX1Bsy6_rblm-56" parent="1">
          <mxGeometry width="50" height="50" relative="1" as="geometry">
            <mxPoint x="2674" y="1245.5" as="sourcePoint" />
            <mxPoint x="2724" y="1195.5" as="targetPoint" />
          </mxGeometry>
        </mxCell>
        <mxCell id="W91S4-fIKX1Bsy6_rblm-66" value="" style="endArrow=none;html=1;rounded=0;entryX=1;entryY=0.75;entryDx=0;entryDy=0;" edge="1" source="W91S4-fIKX1Bsy6_rblm-64" target="W91S4-fIKX1Bsy6_rblm-56" parent="1">
          <mxGeometry width="50" height="50" relative="1" as="geometry">
            <mxPoint x="2684" y="1255.5" as="sourcePoint" />
            <mxPoint x="2734" y="1205.5" as="targetPoint" />
          </mxGeometry>
        </mxCell>
        <mxCell id="W91S4-fIKX1Bsy6_rblm-68" value="FName" style="ellipse;whiteSpace=wrap;html=1;align=center;" vertex="1" parent="1">
          <mxGeometry x="2580" y="718" width="50" height="20" as="geometry" />
        </mxCell>
        <mxCell id="W91S4-fIKX1Bsy6_rblm-69" value="LName" style="ellipse;whiteSpace=wrap;html=1;align=center;" vertex="1" parent="1">
          <mxGeometry x="2659" y="716" width="50" height="20" as="geometry" />
        </mxCell>
        <mxCell id="W91S4-fIKX1Bsy6_rblm-74" value="FName" style="ellipse;whiteSpace=wrap;html=1;align=center;" vertex="1" parent="1">
          <mxGeometry x="2718" y="1181.75" width="50" height="20" as="geometry" />
        </mxCell>
        <mxCell id="W91S4-fIKX1Bsy6_rblm-75" value="LName" style="ellipse;whiteSpace=wrap;html=1;align=center;" vertex="1" parent="1">
          <mxGeometry x="2797" y="1179.75" width="50" height="20" as="geometry" />
        </mxCell>
        <mxCell id="W91S4-fIKX1Bsy6_rblm-80" style="edgeStyle=orthogonalEdgeStyle;rounded=0;orthogonalLoop=1;jettySize=auto;html=1;exitX=0.5;exitY=1;exitDx=0;exitDy=0;entryX=0.42;entryY=0;entryDx=0;entryDy=0;entryPerimeter=0;" edge="1" parent="1" source="W91S4-fIKX1Bsy6_rblm-58" target="W91S4-fIKX1Bsy6_rblm-75">
          <mxGeometry relative="1" as="geometry" />
        </mxCell>
        <mxCell id="W91S4-fIKX1Bsy6_rblm-84" value="has" style="rhombus;whiteSpace=wrap;html=1;" vertex="1" parent="1">
          <mxGeometry x="-950" y="510" width="80" height="80" as="geometry" />
        </mxCell>
        <mxCell id="W91S4-fIKX1Bsy6_rblm-87" style="edgeStyle=orthogonalEdgeStyle;rounded=0;orthogonalLoop=1;jettySize=auto;html=1;exitX=0.5;exitY=0;exitDx=0;exitDy=0;entryX=0.05;entryY=0.5;entryDx=0;entryDy=0;entryPerimeter=0;" edge="1" parent="1" source="W91S4-fIKX1Bsy6_rblm-86" target="W91S4-fIKX1Bsy6_rblm-84">
          <mxGeometry relative="1" as="geometry">
            <mxPoint x="-1020.0555555555555" y="560" as="targetPoint" />
          </mxGeometry>
        </mxCell>
        <mxCell id="W91S4-fIKX1Bsy6_rblm-86" value="Transcript" style="shape=ext;margin=3;double=1;whiteSpace=wrap;html=1;align=center;" vertex="1" parent="1">
          <mxGeometry x="-1070" y="580" width="100" height="32" as="geometry" />
        </mxCell>
        <mxCell id="W91S4-fIKX1Bsy6_rblm-89" value="1" style="text;html=1;align=center;verticalAlign=middle;resizable=0;points=[];autosize=1;strokeColor=none;fillColor=none;" vertex="1" parent="1">
          <mxGeometry x="-970" y="527.5" width="30" height="30" as="geometry" />
        </mxCell>
        <mxCell id="W91S4-fIKX1Bsy6_rblm-90" style="edgeStyle=orthogonalEdgeStyle;rounded=0;orthogonalLoop=1;jettySize=auto;html=1;exitX=0.75;exitY=0;exitDx=0;exitDy=0;entryX=0.081;entryY=0.613;entryDx=0;entryDy=0;entryPerimeter=0;" edge="1" parent="1" source="W91S4-fIKX1Bsy6_rblm-86" target="W91S4-fIKX1Bsy6_rblm-84">
          <mxGeometry relative="1" as="geometry" />
        </mxCell>
        <mxCell id="W91S4-fIKX1Bsy6_rblm-91" style="edgeStyle=orthogonalEdgeStyle;rounded=0;orthogonalLoop=1;jettySize=auto;html=1;exitX=1;exitY=1;exitDx=0;exitDy=0;entryX=0.175;entryY=0.986;entryDx=0;entryDy=0;entryPerimeter=0;endArrow=none;endFill=0;" edge="1" parent="1" source="W91S4-fIKX1Bsy6_rblm-84" target="hI_gfdGzy6ph1winZSWf-1">
          <mxGeometry relative="1" as="geometry">
            <Array as="points">
              <mxPoint x="-449" y="570" />
            </Array>
          </mxGeometry>
        </mxCell>
        <mxCell id="W91S4-fIKX1Bsy6_rblm-92" value="M" style="text;html=1;align=center;verticalAlign=middle;resizable=0;points=[];autosize=1;strokeColor=none;fillColor=none;" vertex="1" parent="1">
          <mxGeometry x="-664" y="656.75" width="30" height="30" as="geometry" />
        </mxCell>
        <mxCell id="W91S4-fIKX1Bsy6_rblm-93" value="M" style="text;html=1;align=center;verticalAlign=middle;resizable=0;points=[];autosize=1;strokeColor=none;fillColor=none;" vertex="1" parent="1">
          <mxGeometry x="-600" y="591.75" width="30" height="30" as="geometry" />
        </mxCell>
        <mxCell id="W91S4-fIKX1Bsy6_rblm-94" value="M" style="text;html=1;align=center;verticalAlign=middle;resizable=0;points=[];autosize=1;strokeColor=none;fillColor=none;" vertex="1" parent="1">
          <mxGeometry x="-425" y="698" width="30" height="30" as="geometry" />
        </mxCell>
        <mxCell id="W91S4-fIKX1Bsy6_rblm-95" value="M" style="text;html=1;align=center;verticalAlign=middle;resizable=0;points=[];autosize=1;strokeColor=none;fillColor=none;" vertex="1" parent="1">
          <mxGeometry x="-425" y="610" width="30" height="30" as="geometry" />
        </mxCell>
        <mxCell id="W91S4-fIKX1Bsy6_rblm-97" value="M" style="text;html=1;align=center;verticalAlign=middle;resizable=0;points=[];autosize=1;strokeColor=none;fillColor=none;" vertex="1" parent="1">
          <mxGeometry x="-257" y="757.63" width="30" height="30" as="geometry" />
        </mxCell>
        <mxCell id="W91S4-fIKX1Bsy6_rblm-98" value="M" style="text;html=1;align=center;verticalAlign=middle;resizable=0;points=[];autosize=1;strokeColor=none;fillColor=none;" vertex="1" parent="1">
          <mxGeometry x="-340" y="757.25" width="30" height="30" as="geometry" />
        </mxCell>
        <mxCell id="W91S4-fIKX1Bsy6_rblm-100" style="edgeStyle=orthogonalEdgeStyle;rounded=0;orthogonalLoop=1;jettySize=auto;html=1;exitX=0.5;exitY=1;exitDx=0;exitDy=0;entryX=0.5;entryY=0;entryDx=0;entryDy=0;" edge="1" parent="1" source="W91S4-fIKX1Bsy6_rblm-101" target="W91S4-fIKX1Bsy6_rblm-102">
          <mxGeometry relative="1" as="geometry" />
        </mxCell>
        <mxCell id="W91S4-fIKX1Bsy6_rblm-105" style="edgeStyle=orthogonalEdgeStyle;rounded=0;orthogonalLoop=1;jettySize=auto;html=1;exitX=0;exitY=0;exitDx=0;exitDy=0;entryX=0.5;entryY=1;entryDx=0;entryDy=0;endArrow=none;endFill=0;" edge="1" parent="1" source="W91S4-fIKX1Bsy6_rblm-101" target="hI_gfdGzy6ph1winZSWf-70">
          <mxGeometry relative="1" as="geometry" />
        </mxCell>
        <mxCell id="W91S4-fIKX1Bsy6_rblm-101" value="name" style="html=1;overflow=block;blockSpacing=1;whiteSpace=wrap;ellipse;fontSize=16.7;spacing=3.8;rounded=1;absoluteArcSize=1;arcSize=9;strokeWidth=NaN;lucidId=N6fCny7tdnae;" vertex="1" parent="1">
          <mxGeometry x="185" y="967.75" width="100" height="44.25" as="geometry" />
        </mxCell>
        <mxCell id="W91S4-fIKX1Bsy6_rblm-102" value="FName" style="ellipse;whiteSpace=wrap;html=1;align=center;" vertex="1" parent="1">
          <mxGeometry x="171" y="1045.75" width="50" height="20" as="geometry" />
        </mxCell>
        <mxCell id="W91S4-fIKX1Bsy6_rblm-103" value="LName" style="ellipse;whiteSpace=wrap;html=1;align=center;" vertex="1" parent="1">
          <mxGeometry x="250" y="1043.75" width="50" height="20" as="geometry" />
        </mxCell>
        <mxCell id="W91S4-fIKX1Bsy6_rblm-104" style="edgeStyle=orthogonalEdgeStyle;rounded=0;orthogonalLoop=1;jettySize=auto;html=1;exitX=0.5;exitY=1;exitDx=0;exitDy=0;entryX=0.42;entryY=0;entryDx=0;entryDy=0;entryPerimeter=0;" edge="1" parent="1" source="W91S4-fIKX1Bsy6_rblm-101" target="W91S4-fIKX1Bsy6_rblm-103">
          <mxGeometry relative="1" as="geometry" />
        </mxCell>
        <mxCell id="W91S4-fIKX1Bsy6_rblm-111" style="edgeStyle=orthogonalEdgeStyle;rounded=0;orthogonalLoop=1;jettySize=auto;html=1;exitX=1;exitY=0.5;exitDx=0;exitDy=0;entryX=0;entryY=0.5;entryDx=0;entryDy=0;endArrow=none;endFill=0;" edge="1" parent="1" source="W91S4-fIKX1Bsy6_rblm-110" target="hI_gfdGzy6ph1winZSWf-84">
          <mxGeometry relative="1" as="geometry" />
        </mxCell>
        <mxCell id="W91S4-fIKX1Bsy6_rblm-110" value="TuitionID" style="ellipse;whiteSpace=wrap;html=1;align=center;fontStyle=4;" vertex="1" parent="1">
          <mxGeometry x="300" y="875.5" width="100" height="40" as="geometry" />
        </mxCell>
        <mxCell id="W91S4-fIKX1Bsy6_rblm-112" value="&lt;span style=&quot;border-bottom: 1px dotted&quot;&gt;TranscriptID&lt;/span&gt;" style="ellipse;whiteSpace=wrap;html=1;align=center;" vertex="1" parent="1">
          <mxGeometry x="-1260" y="767.75" width="100" height="40" as="geometry" />
        </mxCell>
        <mxCell id="W91S4-fIKX1Bsy6_rblm-113" style="edgeStyle=orthogonalEdgeStyle;rounded=0;orthogonalLoop=1;jettySize=auto;html=1;exitX=0.5;exitY=0;exitDx=0;exitDy=0;entryX=0.222;entryY=0.948;entryDx=0;entryDy=0;entryPerimeter=0;endArrow=none;endFill=0;" edge="1" parent="1" source="W91S4-fIKX1Bsy6_rblm-112" target="W91S4-fIKX1Bsy6_rblm-86">
          <mxGeometry relative="1" as="geometry" />
        </mxCell>
        <mxCell id="W91S4-fIKX1Bsy6_rblm-114" value="M" style="text;html=1;align=center;verticalAlign=middle;resizable=0;points=[];autosize=1;strokeColor=none;fillColor=none;" vertex="1" parent="1">
          <mxGeometry x="5" y="708" width="30" height="30" as="geometry" />
        </mxCell>
        <mxCell id="W91S4-fIKX1Bsy6_rblm-115" value="M" style="text;html=1;align=center;verticalAlign=middle;resizable=0;points=[];autosize=1;strokeColor=none;fillColor=none;" vertex="1" parent="1">
          <mxGeometry x="-95" y="708" width="30" height="30" as="geometry" />
        </mxCell>
        <mxCell id="W91S4-fIKX1Bsy6_rblm-116" value="M" style="text;html=1;align=center;verticalAlign=middle;resizable=0;points=[];autosize=1;strokeColor=none;fillColor=none;" vertex="1" parent="1">
          <mxGeometry x="560.5" y="792.25" width="30" height="30" as="geometry" />
        </mxCell>
        <mxCell id="W91S4-fIKX1Bsy6_rblm-117" value="1" style="text;html=1;align=center;verticalAlign=middle;resizable=0;points=[];autosize=1;strokeColor=none;fillColor=none;" vertex="1" parent="1">
          <mxGeometry x="505" y="738" width="30" height="30" as="geometry" />
        </mxCell>
        <mxCell id="W91S4-fIKX1Bsy6_rblm-118" value="M" style="text;html=1;align=center;verticalAlign=middle;resizable=0;points=[];autosize=1;strokeColor=none;fillColor=none;" vertex="1" parent="1">
          <mxGeometry x="35" y="579.25" width="30" height="30" as="geometry" />
        </mxCell>
        <mxCell id="W91S4-fIKX1Bsy6_rblm-119" value="M" style="text;html=1;align=center;verticalAlign=middle;resizable=0;points=[];autosize=1;strokeColor=none;fillColor=none;" vertex="1" parent="1">
          <mxGeometry x="-56.75" y="579.25" width="30" height="30" as="geometry" />
        </mxCell>
        <mxCell id="W91S4-fIKX1Bsy6_rblm-121" value="AttendanceID" style="ellipse;whiteSpace=wrap;html=1;align=center;fontStyle=4;" vertex="1" parent="1">
          <mxGeometry x="706" y="961.75" width="100" height="40" as="geometry" />
        </mxCell>
        <mxCell id="W91S4-fIKX1Bsy6_rblm-122" style="edgeStyle=orthogonalEdgeStyle;rounded=0;orthogonalLoop=1;jettySize=auto;html=1;exitX=1;exitY=0.5;exitDx=0;exitDy=0;entryX=0.132;entryY=0.978;entryDx=0;entryDy=0;entryPerimeter=0;endArrow=none;endFill=0;" edge="1" parent="1" source="W91S4-fIKX1Bsy6_rblm-121" target="hI_gfdGzy6ph1winZSWf-97">
          <mxGeometry relative="1" as="geometry" />
        </mxCell>
        <mxCell id="W91S4-fIKX1Bsy6_rblm-123" value="Enrollment" style="rhombus;whiteSpace=wrap;html=1;" vertex="1" parent="1">
          <mxGeometry x="980" y="108" width="80" height="80" as="geometry" />
        </mxCell>
        <mxCell id="W91S4-fIKX1Bsy6_rblm-126" value="&lt;div&gt;Amount&lt;/div&gt;" style="ellipse;whiteSpace=wrap;html=1;align=center;dashed=1;" vertex="1" parent="1">
          <mxGeometry x="432" y="1061.75" width="100" height="40" as="geometry" />
        </mxCell>
        <mxCell id="W91S4-fIKX1Bsy6_rblm-127" style="edgeStyle=orthogonalEdgeStyle;rounded=0;orthogonalLoop=1;jettySize=auto;html=1;exitX=0.5;exitY=0;exitDx=0;exitDy=0;entryX=0.207;entryY=0.99;entryDx=0;entryDy=0;entryPerimeter=0;endArrow=none;endFill=0;" edge="1" parent="1" source="W91S4-fIKX1Bsy6_rblm-126" target="hI_gfdGzy6ph1winZSWf-84">
          <mxGeometry relative="1" as="geometry" />
        </mxCell>
        <mxCell id="W91S4-fIKX1Bsy6_rblm-175" style="edgeStyle=orthogonalEdgeStyle;rounded=0;orthogonalLoop=1;jettySize=auto;html=1;exitX=0.5;exitY=0;exitDx=0;exitDy=0;entryX=0.25;entryY=1;entryDx=0;entryDy=0;endArrow=none;endFill=0;" edge="1" parent="1" source="W91S4-fIKX1Bsy6_rblm-184" target="hI_gfdGzy6ph1winZSWf-139">
          <mxGeometry relative="1" as="geometry">
            <Array as="points">
              <mxPoint x="2070" y="-292" />
              <mxPoint x="2340" y="-292" />
              <mxPoint x="2340" y="138" />
              <mxPoint x="2729" y="138" />
            </Array>
          </mxGeometry>
        </mxCell>
        <mxCell id="W91S4-fIKX1Bsy6_rblm-164" value="Course" style="html=1;overflow=block;blockSpacing=1;whiteSpace=wrap;fontSize=16.7;spacing=9;rounded=1;absoluteArcSize=1;arcSize=9;strokeWidth=NaN;lucidId=C~fCS3e-xRTn;" vertex="1" parent="1">
          <mxGeometry x="1754" y="-213.25" width="157" height="107" as="geometry" />
        </mxCell>
        <mxCell id="W91S4-fIKX1Bsy6_rblm-165" style="edgeStyle=orthogonalEdgeStyle;rounded=0;orthogonalLoop=1;jettySize=auto;html=1;exitX=0.5;exitY=0;exitDx=0;exitDy=0;entryX=0.25;entryY=1;entryDx=0;entryDy=0;endArrow=none;endFill=0;" edge="1" parent="1" source="W91S4-fIKX1Bsy6_rblm-166" target="W91S4-fIKX1Bsy6_rblm-164">
          <mxGeometry relative="1" as="geometry" />
        </mxCell>
        <mxCell id="W91S4-fIKX1Bsy6_rblm-166" value="CourseName" style="html=1;overflow=block;blockSpacing=1;whiteSpace=wrap;ellipse;fontSize=16.7;spacing=3.8;rounded=1;absoluteArcSize=1;arcSize=9;strokeWidth=NaN;lucidId=C~fCIbxxVRaa;" vertex="1" parent="1">
          <mxGeometry x="1700" y="0.75" width="110" height="100" as="geometry" />
        </mxCell>
        <mxCell id="W91S4-fIKX1Bsy6_rblm-167" value="credits" style="html=1;overflow=block;blockSpacing=1;whiteSpace=wrap;ellipse;fontSize=16.7;spacing=3.8;rounded=1;absoluteArcSize=1;arcSize=9;strokeWidth=NaN;lucidId=C~fCIbxxVRaa;" vertex="1" parent="1">
          <mxGeometry x="1824" y="20.75" width="87" height="90" as="geometry" />
        </mxCell>
        <mxCell id="W91S4-fIKX1Bsy6_rblm-168" value="description" style="html=1;overflow=block;blockSpacing=1;whiteSpace=wrap;ellipse;fontSize=16.7;spacing=3.8;rounded=1;absoluteArcSize=1;arcSize=9;strokeWidth=NaN;lucidId=C~fCIbxxVRaa;" vertex="1" parent="1">
          <mxGeometry x="1925" y="0.75" width="87" height="90" as="geometry" />
        </mxCell>
        <mxCell id="W91S4-fIKX1Bsy6_rblm-169" value="prerequisites" style="html=1;overflow=block;blockSpacing=1;whiteSpace=wrap;ellipse;fontSize=16.7;spacing=3.8;rounded=1;absoluteArcSize=1;arcSize=9;strokeWidth=NaN;lucidId=C~fCIbxxVRaa;" vertex="1" parent="1">
          <mxGeometry x="1520" y="-119.25" width="127" height="112" as="geometry" />
        </mxCell>
        <mxCell id="W91S4-fIKX1Bsy6_rblm-170" style="edgeStyle=orthogonalEdgeStyle;rounded=0;orthogonalLoop=1;jettySize=auto;html=1;exitX=1;exitY=0;exitDx=0;exitDy=0;entryX=0.024;entryY=0.637;entryDx=0;entryDy=0;entryPerimeter=0;endArrow=none;endFill=0;" edge="1" parent="1" source="W91S4-fIKX1Bsy6_rblm-169" target="W91S4-fIKX1Bsy6_rblm-164">
          <mxGeometry relative="1" as="geometry" />
        </mxCell>
        <mxCell id="W91S4-fIKX1Bsy6_rblm-171" style="edgeStyle=orthogonalEdgeStyle;rounded=0;orthogonalLoop=1;jettySize=auto;html=1;exitX=0.5;exitY=0;exitDx=0;exitDy=0;entryX=0.42;entryY=0.972;entryDx=0;entryDy=0;entryPerimeter=0;endArrow=none;endFill=0;" edge="1" parent="1" source="W91S4-fIKX1Bsy6_rblm-167" target="W91S4-fIKX1Bsy6_rblm-164">
          <mxGeometry relative="1" as="geometry" />
        </mxCell>
        <mxCell id="W91S4-fIKX1Bsy6_rblm-172" style="edgeStyle=orthogonalEdgeStyle;rounded=0;orthogonalLoop=1;jettySize=auto;html=1;exitX=0.5;exitY=0;exitDx=0;exitDy=0;entryX=0.746;entryY=0.938;entryDx=0;entryDy=0;entryPerimeter=0;endArrow=none;endFill=0;" edge="1" parent="1" source="W91S4-fIKX1Bsy6_rblm-168" target="W91S4-fIKX1Bsy6_rblm-164">
          <mxGeometry relative="1" as="geometry" />
        </mxCell>
        <mxCell id="W91S4-fIKX1Bsy6_rblm-173" value="TuitionID" style="ellipse;whiteSpace=wrap;html=1;align=center;fontStyle=4;" vertex="1" parent="1">
          <mxGeometry x="1596" y="-7.25" width="100" height="40" as="geometry" />
        </mxCell>
        <mxCell id="W91S4-fIKX1Bsy6_rblm-174" style="edgeStyle=orthogonalEdgeStyle;rounded=0;orthogonalLoop=1;jettySize=auto;html=1;exitX=0.5;exitY=0;exitDx=0;exitDy=0;entryX=0.086;entryY=0.988;entryDx=0;entryDy=0;entryPerimeter=0;endArrow=none;endFill=0;" edge="1" parent="1" source="W91S4-fIKX1Bsy6_rblm-173" target="W91S4-fIKX1Bsy6_rblm-164">
          <mxGeometry relative="1" as="geometry">
            <Array as="points">
              <mxPoint x="1670" y="-7.25" />
              <mxPoint x="1670" y="-69.25" />
              <mxPoint x="1768" y="-69.25" />
            </Array>
          </mxGeometry>
        </mxCell>
        <mxCell id="W91S4-fIKX1Bsy6_rblm-177" style="edgeStyle=orthogonalEdgeStyle;rounded=0;orthogonalLoop=1;jettySize=auto;html=1;exitX=1;exitY=0.5;exitDx=0;exitDy=0;entryX=0.25;entryY=0;entryDx=0;entryDy=0;" edge="1" parent="1" source="W91S4-fIKX1Bsy6_rblm-176" target="W91S4-fIKX1Bsy6_rblm-164">
          <mxGeometry relative="1" as="geometry" />
        </mxCell>
        <mxCell id="W91S4-fIKX1Bsy6_rblm-178" style="edgeStyle=orthogonalEdgeStyle;rounded=0;orthogonalLoop=1;jettySize=auto;html=1;exitX=0;exitY=0.5;exitDx=0;exitDy=0;entryX=0.929;entryY=0.993;entryDx=0;entryDy=0;entryPerimeter=0;endArrow=none;endFill=0;" edge="1" parent="1" source="W91S4-fIKX1Bsy6_rblm-176" target="hI_gfdGzy6ph1winZSWf-1">
          <mxGeometry relative="1" as="geometry">
            <Array as="points">
              <mxPoint x="280" y="-120" />
              <mxPoint x="280" y="490" />
              <mxPoint x="-360" y="490" />
              <mxPoint x="-360" y="451" />
            </Array>
          </mxGeometry>
        </mxCell>
        <mxCell id="W91S4-fIKX1Bsy6_rblm-176" value="Enroll" style="rhombus;whiteSpace=wrap;html=1;" vertex="1" parent="1">
          <mxGeometry x="910" y="-160" width="80" height="80" as="geometry" />
        </mxCell>
        <mxCell id="W91S4-fIKX1Bsy6_rblm-179" value="M" style="text;html=1;align=center;verticalAlign=middle;resizable=0;points=[];autosize=1;strokeColor=none;fillColor=none;" vertex="1" parent="1">
          <mxGeometry x="885" y="-152" width="30" height="30" as="geometry" />
        </mxCell>
        <mxCell id="W91S4-fIKX1Bsy6_rblm-180" value="M" style="text;html=1;align=center;verticalAlign=middle;resizable=0;points=[];autosize=1;strokeColor=none;fillColor=none;" vertex="1" parent="1">
          <mxGeometry x="985" y="-152" width="30" height="30" as="geometry" />
        </mxCell>
        <mxCell id="W91S4-fIKX1Bsy6_rblm-183" value="" style="edgeStyle=orthogonalEdgeStyle;rounded=0;orthogonalLoop=1;jettySize=auto;html=1;exitX=0.5;exitY=0;exitDx=0;exitDy=0;entryX=0.25;entryY=1;entryDx=0;entryDy=0;" edge="1" parent="1" source="W91S4-fIKX1Bsy6_rblm-164" target="W91S4-fIKX1Bsy6_rblm-184">
          <mxGeometry relative="1" as="geometry">
            <mxPoint x="1833" y="-213" as="sourcePoint" />
            <mxPoint x="2729" y="118" as="targetPoint" />
          </mxGeometry>
        </mxCell>
        <mxCell id="W91S4-fIKX1Bsy6_rblm-184" value="Has" style="rhombus;whiteSpace=wrap;html=1;" vertex="1" parent="1">
          <mxGeometry x="2030" y="-272" width="80" height="80" as="geometry" />
        </mxCell>
        <mxCell id="W91S4-fIKX1Bsy6_rblm-185" value="M" style="text;html=1;align=center;verticalAlign=middle;resizable=0;points=[];autosize=1;strokeColor=none;fillColor=none;" vertex="1" parent="1">
          <mxGeometry x="2005" y="-232" width="30" height="30" as="geometry" />
        </mxCell>
        <mxCell id="W91S4-fIKX1Bsy6_rblm-186" value="M" style="text;html=1;align=center;verticalAlign=middle;resizable=0;points=[];autosize=1;strokeColor=none;fillColor=none;" vertex="1" parent="1">
          <mxGeometry x="2085" y="-282" width="30" height="30" as="geometry" />
        </mxCell>
        <mxCell id="W91S4-fIKX1Bsy6_rblm-187" value="" style="edgeStyle=orthogonalEdgeStyle;rounded=0;orthogonalLoop=1;jettySize=auto;html=1;exitX=0.5;exitY=0;exitDx=0;exitDy=0;entryX=0.5;entryY=1;entryDx=0;entryDy=0;endArrow=none;endFill=0;" edge="1" parent="1" source="W91S4-fIKX1Bsy6_rblm-56" target="W91S4-fIKX1Bsy6_rblm-188">
          <mxGeometry relative="1" as="geometry">
            <mxPoint x="2702" y="895" as="sourcePoint" />
            <mxPoint x="2204" y="572" as="targetPoint" />
            <Array as="points">
              <mxPoint x="2702" y="840" />
            </Array>
          </mxGeometry>
        </mxCell>
        <mxCell id="W91S4-fIKX1Bsy6_rblm-188" value="Works" style="rhombus;whiteSpace=wrap;html=1;" vertex="1" parent="1">
          <mxGeometry x="2320" y="802" width="80" height="80" as="geometry" />
        </mxCell>
        <mxCell id="W91S4-fIKX1Bsy6_rblm-189" value="M" style="text;html=1;align=center;verticalAlign=middle;resizable=0;points=[];autosize=1;strokeColor=none;fillColor=none;" vertex="1" parent="1">
          <mxGeometry x="2390" y="804.5" width="30" height="30" as="geometry" />
        </mxCell>
        <mxCell id="W91S4-fIKX1Bsy6_rblm-192" value="1" style="text;html=1;align=center;verticalAlign=middle;resizable=0;points=[];autosize=1;strokeColor=none;fillColor=none;" vertex="1" parent="1">
          <mxGeometry x="2300" y="807.75" width="30" height="30" as="geometry" />
        </mxCell>
        <mxCell id="W91S4-fIKX1Bsy6_rblm-193" value="M" style="text;html=1;align=center;verticalAlign=middle;resizable=0;points=[];autosize=1;strokeColor=none;fillColor=none;" vertex="1" parent="1">
          <mxGeometry x="3105" y="1768" width="30" height="30" as="geometry" />
        </mxCell>
        <mxCell id="W91S4-fIKX1Bsy6_rblm-194" value="1" style="text;html=1;align=center;verticalAlign=middle;resizable=0;points=[];autosize=1;strokeColor=none;fillColor=none;" vertex="1" parent="1">
          <mxGeometry x="3075" y="1668.5" width="30" height="30" as="geometry" />
        </mxCell>
        <mxCell id="W91S4-fIKX1Bsy6_rblm-195" value="1" style="text;html=1;align=center;verticalAlign=middle;resizable=0;points=[];autosize=1;strokeColor=none;fillColor=none;" vertex="1" parent="1">
          <mxGeometry x="3045" y="998" width="30" height="30" as="geometry" />
        </mxCell>
        <mxCell id="W91S4-fIKX1Bsy6_rblm-196" value="1" style="text;html=1;align=center;verticalAlign=middle;resizable=0;points=[];autosize=1;strokeColor=none;fillColor=none;" vertex="1" parent="1">
          <mxGeometry x="3045" y="907.75" width="30" height="30" as="geometry" />
        </mxCell>
        <mxCell id="W91S4-fIKX1Bsy6_rblm-197" value="1" style="text;html=1;align=center;verticalAlign=middle;resizable=0;points=[];autosize=1;strokeColor=none;fillColor=none;" vertex="1" parent="1">
          <mxGeometry x="2885" y="328.25" width="30" height="30" as="geometry" />
        </mxCell>
        <mxCell id="W91S4-fIKX1Bsy6_rblm-198" value="1" style="text;html=1;align=center;verticalAlign=middle;resizable=0;points=[];autosize=1;strokeColor=none;fillColor=none;" vertex="1" parent="1">
          <mxGeometry x="2885" y="243" width="30" height="30" as="geometry" />
        </mxCell>
        <mxCell id="W91S4-fIKX1Bsy6_rblm-201" value="" style="edgeStyle=orthogonalEdgeStyle;rounded=0;orthogonalLoop=1;jettySize=auto;html=1;exitX=0.5;exitY=0;exitDx=0;exitDy=0;entryX=0.5;entryY=1;entryDx=0;entryDy=0;endArrow=none;endFill=0;" edge="1" parent="1" source="W91S4-fIKX1Bsy6_rblm-35" target="W91S4-fIKX1Bsy6_rblm-202">
          <mxGeometry relative="1" as="geometry">
            <mxPoint x="2550" y="413" as="sourcePoint" />
            <mxPoint x="2769" y="118" as="targetPoint" />
            <Array as="points" />
          </mxGeometry>
        </mxCell>
        <mxCell id="W91S4-fIKX1Bsy6_rblm-202" value="Works" style="rhombus;whiteSpace=wrap;html=1;" vertex="1" parent="1">
          <mxGeometry x="2500" y="303.25" width="80" height="80" as="geometry" />
        </mxCell>
        <mxCell id="W91S4-fIKX1Bsy6_rblm-203" value="M" style="text;html=1;align=center;verticalAlign=middle;resizable=0;points=[];autosize=1;strokeColor=none;fillColor=none;" vertex="1" parent="1">
          <mxGeometry x="2515" y="378.5" width="30" height="30" as="geometry" />
        </mxCell>
        <mxCell id="W91S4-fIKX1Bsy6_rblm-204" value="1" style="text;html=1;align=center;verticalAlign=middle;resizable=0;points=[];autosize=1;strokeColor=none;fillColor=none;" vertex="1" parent="1">
          <mxGeometry x="2555" y="298" width="30" height="30" as="geometry" />
        </mxCell>
        <mxCell id="W91S4-fIKX1Bsy6_rblm-205" value="M" style="text;html=1;align=center;verticalAlign=middle;resizable=0;points=[];autosize=1;strokeColor=none;fillColor=none;" vertex="1" parent="1">
          <mxGeometry x="2315" y="258" width="30" height="30" as="geometry" />
        </mxCell>
        <mxCell id="W91S4-fIKX1Bsy6_rblm-206" value="M" style="text;html=1;align=center;verticalAlign=middle;resizable=0;points=[];autosize=1;strokeColor=none;fillColor=none;" vertex="1" parent="1">
          <mxGeometry x="2415" y="258" width="30" height="30" as="geometry" />
        </mxCell>
      </root>
    </mxGraphModel>
  </diagram>
</mxfile>
